<?xml version="1.0" encoding="utf-8"?>
<!-- Generator: Adobe Illustrator 28.1.0, SVG Export Plug-In . SVG Version: 6.00 Build 0)  -->
<svg version="1.1" id="Ebene_1" xmlns="http://www.w3.org/2000/svg" xmlns:xlink="http://www.w3.org/1999/xlink" x="0px" y="0px"
	 viewBox="0 0 512 512" style="enable-background:new 0 0 512 512;" xml:space="preserve">
<style type="text/css">
	.st0{fill:#4242D2;}
</style>
<g id="Page-1">
	<g id="_x30_16---Bag">
		<path id="Shape" class="st0" d="M93,503.5c84.8,8.4,153.8,8.5,154.5,8.5h17.1c0.7,0,69.7-0.1,154.5-8.6
			c29.7-3,51.6-14.7,65.2-34.9c19.9-29.7,15.5-69.9,10.4-87c-26.2-88-44.2-290.3-49-350.3c-1.4-17.8-16.2-31.4-34-31.3h-22.2
			c-7.6,0-13.8,6.1-14,13.7l-0.1,4.1V18C372,96.2,311.2,131.9,256,131.9S140.1,96.3,136.7,18.2v-0.3l-0.1-4.1
			c-0.1-7.7-6.3-13.8-14-13.8h-22.2c-17.8-0.1-32.6,13.6-34,31.3c-4.9,59.9-22.8,262.2-49,350.3c-5.1,17.1-9.5,57.3,10.4,87
			C41.4,488.7,63.3,500.5,93,503.5L93,503.5z M256,148.9c38.7,0.4,75.9-15.3,102.6-43.4c-22.4,55.9-63.9,82.2-102.6,82.2
			s-80.2-26.3-102.6-82.2C180.1,133.6,217.3,149.3,256,148.9L256,148.9z M33.8,386.4c26-87.2,43.4-276.4,49.7-353.7
			c0.7-8.9,8.1-15.7,17-15.6h19.1v1.3v0.2c3.7,127.9,73.2,186.2,136.4,186.2s132.8-58.3,136.3-186.4l0-1.3h19.1
			c8.9-0.1,16.3,6.8,17,15.6c6.3,77.3,23.7,266.6,49.7,353.7c3.5,11.6,8.7,47.3-8.2,72.6c-10.6,15.7-28.3,25-52.7,27.4
			c-83.9,8.4-152.1,8.5-152.7,8.5h-17.1c-0.7,0-68.8-0.1-152.7-8.5C70.3,484,52.6,474.8,42,459.1C25.1,433.8,30.3,398.1,33.8,386.4
			L33.8,386.4z"/>
		<path id="Shape_00000161617824348367384660000013619821536534570889_" class="st0" d="M96.4,469.5c0.3,0,0.6,0,0.9,0
			c4.7,0.2,8.7-3.4,9-8.1c0.2-4.7-3.4-8.7-8.1-9c-20.8-2.1-26-9.9-27.8-12.5c-8.2-12.2-6.5-35-3.9-43.9c1.2-4.5-1.3-9.1-5.8-10.4
			c-4.4-1.3-9.1,1.1-10.6,5.6c-3.3,11.1-6.2,40,6.1,58.3C59,453.8,67.6,466.6,96.4,469.5L96.4,469.5z"/>
		<path id="Shape_00000117651635097291102550000012337775841281680545_" class="st0" d="M414.7,469.5c0.3,0,0.6,0,0.9,0
			c28.8-2.9,37.4-15.7,40.2-19.9c12.3-18.3,9.4-47.1,6.1-58.2c-1.4-4.4-6.1-6.9-10.6-5.6c-4.4,1.3-7,6-5.8,10.4
			c2.7,8.9,4.3,31.6-3.9,43.9c-1.7,2.6-7,10.4-27.8,12.5c-4.7,0.2-8.3,4.2-8.1,9C406,466.2,410,469.8,414.7,469.5L414.7,469.5z"/>
	</g>
</g>
</svg>
