<svg xmlns="http://www.w3.org/2000/svg" xmlns:xlink="http://www.w3.org/1999/xlink" width="314" height="310" viewBox="0 0 314 310">
  <defs>
    <clipPath id="clip-Bottle_01">
      <rect width="314" height="310"/>
    </clipPath>
  </defs>
  <g id="Bottle_01" data-name="Bottle 01" clip-path="url(#clip-Bottle_01)">
    <rect width="314" height="310" fill="#fff"/>
    <g id="Outline" transform="translate(-5.534 11.159)">
      <path id="Pfad_471" data-name="Pfad 471" d="M384.534,143.586l-10.968-15.381V108.261A4.261,4.261,0,0,0,369.305,104H343.737a4.261,4.261,0,0,0-4.261,4.261v19.944L328.512,143.58A55.446,55.446,0,0,0,325.2,148.8l7.441,4.155a46.893,46.893,0,0,1,2.805-4.421l11.76-16.491a4.261,4.261,0,0,0,.792-2.472V112.523h17.045v17.045a4.261,4.261,0,0,0,.792,2.473l11.773,16.509a46.039,46.039,0,0,1,5.759,10.847H352.26v8.523H385.6a47.583,47.583,0,0,1,.746,7.884v.639H352.26v8.523h34.091v8.523H352.26v8.523H384.7l-1.025,3.127a30.274,30.274,0,0,0-.006,19.295l1.542,4.7a22.018,22.018,0,0,1,1.144,6.964H352.26v8.523h34.091v8.523H352.26v8.523h34.091v8.523H352.26v8.523h34.091v17.045a8.531,8.531,0,0,1-8.523,8.523h-9.247a4.273,4.273,0,0,1-3.036-1.265,13,13,0,0,0-18.045,0l6.026,6.026a4.272,4.272,0,0,1,5.992,0,12.74,12.74,0,0,0,9.062,3.762h9.247a17.064,17.064,0,0,0,17.045-17.045V236.1a30.5,30.5,0,0,0-1.575-9.638l-1.542-4.7a21.767,21.767,0,0,1,.006-13.947l1.545-4.711a38.271,38.271,0,0,0,1.178-4.711,32.8,32.8,0,0,0,.388-4.9V175.8a56.653,56.653,0,0,0-1.569-13.153A54.529,54.529,0,0,0,384.534,143.586Z" transform="translate(-125.805 -41.125)" fill="#c6dd30"/>
      <path id="Pfad_472" data-name="Pfad 472" d="M56,109.75V238.657a33.062,33.062,0,0,0,33.026,33.026,32.731,32.731,0,0,0,19.823-6.61,11.36,11.36,0,0,1,13.625,0,32.832,32.832,0,0,0,18.6,6.588l.316-8.518a24.3,24.3,0,0,1-13.785-4.879,19.922,19.922,0,0,0-23.879,0,24.261,24.261,0,0,1-14.7,4.9,24.532,24.532,0,0,1-24.5-24.5V216.284h76.7v-8.523h-76.7V122.534h93.75v-8.523H64.523V109.75a51.017,51.017,0,0,1,35.4-48.661,4.258,4.258,0,0,0,2.948-4.053V45.83h25.568V57.036a4.258,4.258,0,0,0,2.948,4.053,50.94,50.94,0,0,1,35.254,44.724l8.5-.649a59.4,59.4,0,0,0-38.178-51.143V45.83h8.523V37.307h-8.523V20.261A4.261,4.261,0,0,0,132.7,16H98.614a4.261,4.261,0,0,0-4.261,4.261V37.307H85.829V45.83h8.523v8.192A59.5,59.5,0,0,0,56,109.75Zm46.875-85.227h25.568V37.307H102.875Z" transform="translate(0)" fill="#c6dd30"/>
      <path id="Pfad_473" data-name="Pfad 473" d="M123.57,121l4.719,7.1a34.377,34.377,0,0,1,8.454-4.074l-2.622-8.111A42.882,42.882,0,0,0,123.57,121Z" transform="translate(-31.577 -46.689)" fill="#c6dd30"/>
      <path id="Pfad_474" data-name="Pfad 474" d="M96.957,162.317a34.144,34.144,0,0,1,9.261-19.809l-6.146-5.908a42.741,42.741,0,0,0-11.588,24.778Z" transform="translate(-15.181 -56.36)" fill="#c6dd30"/>
      <rect id="Rechteck_290" data-name="Rechteck 290" width="9.227" height="8.304" transform="translate(72.608 131.434)" fill="#c6dd30"/>
      <rect id="Rechteck_291" data-name="Rechteck 291" width="9.227" height="38.753" transform="translate(72.608 148.042)" fill="#c6dd30"/>
      <rect id="Rechteck_292" data-name="Rechteck 292" width="8.304" height="12.918" transform="translate(166.722 156.346)" fill="#c6dd30"/>
      <path id="Pfad_475" data-name="Pfad 475" d="M266.091,192c-9.559,0-17.045,5.616-17.045,12.784V219.2l-9.961,5A12.731,12.731,0,0,0,232,235.638v20.283a4.262,4.262,0,0,0,.45,1.907l3.308,6.616-3.308,6.617a4.263,4.263,0,0,0-.45,1.906v8.523a4.262,4.262,0,0,0,.45,1.907l3.308,6.616-3.308,6.617a4.263,4.263,0,0,0-.45,1.906v8.523a4.262,4.262,0,0,0,.45,1.907l3.308,6.616-3.308,6.617A4.262,4.262,0,0,0,232,324.1v17.046a12.8,12.8,0,0,0,12.784,12.784H287.4a13.55,13.55,0,0,0,2.9-.327,12.765,12.765,0,0,0,9.887-12.458V324.1a4.262,4.262,0,0,0-.45-1.907l-3.308-6.616,3.308-6.617a4.261,4.261,0,0,0,.45-1.906v-8.523a4.262,4.262,0,0,0-.45-1.907l-3.308-6.616,3.308-6.617a4.26,4.26,0,0,0,.45-1.906v-8.523a4.263,4.263,0,0,0-.45-1.907l-3.308-6.616,3.308-6.617a4.261,4.261,0,0,0,.45-1.906V235.638A12.722,12.722,0,0,0,293.1,224.2l-9.965-5V204.784C283.136,197.616,275.65,192,266.091,192Zm0,8.523c5.2,0,8.523,2.524,8.523,4.261s-3.321,4.261-8.523,4.261-8.523-2.524-8.523-4.261S260.889,200.523,266.091,200.523Zm23.194,31.3a4.249,4.249,0,0,1,2.374,3.816v19.278l-2.634,5.267H253.307V268.7h35.718l2.634,5.267v6.512l-2.634,5.267H253.307v8.523h35.718l2.634,5.267v6.512l-2.634,5.267H253.307v8.523h35.718l2.634,5.267v16.04a4.307,4.307,0,0,1-3.229,4.143,4.993,4.993,0,0,1-1.032.119H244.784a4.274,4.274,0,0,1-3.392-1.7,4.19,4.19,0,0,1-.87-2.565v-16.04l3.812-7.622a4.266,4.266,0,0,0,0-3.812l-3.812-7.622v-6.512l3.812-7.622a4.266,4.266,0,0,0,0-3.812l-3.812-7.622v-6.512l3.812-7.622a4.266,4.266,0,0,0,0-3.812l-3.812-7.622V235.638a4.257,4.257,0,0,1,2.379-3.821l12.315-6.179a4.256,4.256,0,0,0,2.351-3.809v-5.985a21.931,21.931,0,0,0,17.045,0v5.985a4.257,4.257,0,0,0,2.351,3.807Z" transform="translate(-82.25 -82.25)" fill="#c6dd30"/>
    </g>
  </g>
</svg>
