<?xml version="1.0" encoding="utf-8"?>
<!-- Generator: Adobe Illustrator 28.1.0, SVG Export Plug-In . SVG Version: 6.00 Build 0)  -->
<svg version="1.1" id="Ebene_1" xmlns="http://www.w3.org/2000/svg" xmlns:xlink="http://www.w3.org/1999/xlink" x="0px" y="0px"
	 viewBox="0 0 512 512" style="enable-background:new 0 0 512 512;" xml:space="preserve">
<style type="text/css">
	.st0{fill:#B9D313;}
</style>
<g id="Page-1">
	<g id="_x30_22---Cash" transform="translate(0 -1)">
		<path id="Shape" class="st0" d="M494.9,129H145.1c-4.7,0-8.5,3.8-8.5,8.5s3.8,8.5,8.5,8.5h51.6c-37.9,24.1-60.6,66-60.1,110.9
			c-0.5,44.9,22.2,86.8,60.1,110.9H17.1V146.1h85.3c4.7,0,8.5-3.8,8.5-8.5s-3.8-8.5-8.5-8.5H17.1C7.6,129,0,136.6,0,146.1v221.9
			c0,9.4,7.6,17.1,17.1,17.1h477.9c9.4,0,17.1-7.6,17.1-17.1V146.1C512,136.6,504.4,129,494.9,129z M153.6,257
			c0-61.2,45.9-110.9,102.4-110.9S358.4,195.8,358.4,257S312.5,367.9,256,367.9S153.6,318.2,153.6,257z M494.9,367.9H315.3
			c37.9-24.1,60.6-66,60.1-110.9c0.5-44.9-22.2-86.8-60.1-110.9h179.6V367.9z"/>
		<path id="Shape_00000028313706199076325070000011067519634531765685_" class="st0" d="M450,36.9c-4-2-8.7-2.4-13-0.9L253.2,97.6
			c-4.5,1.5-6.9,6.3-5.4,10.8c1.5,4.5,6.3,6.9,10.8,5.4l183.8-61.6l18.9,56.2c1,2.9,3.4,5.1,6.4,5.7c3,0.6,6.1-0.4,8.1-2.7
			c2-2.3,2.7-5.5,1.7-8.4l-18.9-56.2C457.2,42.5,454.1,38.9,450,36.9z"/>
		<path id="Shape_00000111152735061554285890000003638391197161908374_" class="st0" d="M253.4,400.2L69.6,461.8l-18.9-56.2
			c-1.5-4.5-6.3-6.9-10.8-5.4c-4.5,1.5-6.9,6.3-5.4,10.8l18.8,56.2c1.4,4.3,4.5,7.9,8.5,9.9c2.4,1.2,5,1.8,7.6,1.8
			c1.8,0,3.7-0.3,5.4-0.9l183.8-61.6c4.5-1.5,6.9-6.3,5.4-10.8C262.6,401.1,257.8,398.7,253.4,400.2L253.4,400.2z"/>
		<path id="Shape_00000115492199557335998770000009830367906524220288_" class="st0" d="M281.6,227.1c0,4.7,3.8,8.5,8.5,8.5
			c4.7,0,8.5-3.8,8.5-8.5c-0.8-19.1-15.2-34.9-34.1-37.6v-0.8c0-4.7-3.8-8.5-8.5-8.5c-4.7,0-8.5,3.8-8.5,8.5v0.8
			c-19,2.7-33.3,18.5-34.1,37.6c0.8,19.1,15.2,34.9,34.1,37.6v42.1c-9.5-2.2-16.4-10.3-17.1-20c0-4.7-3.8-8.5-8.5-8.5
			c-4.7,0-8.5,3.8-8.5,8.5c0.8,19.1,15.2,34.9,34.1,37.6v0.8c0,4.7,3.8,8.5,8.5,8.5c4.7,0,8.5-3.8,8.5-8.5v-0.8
			c19-2.7,33.3-18.5,34.1-37.6c-0.8-19.1-15.2-34.9-34.1-37.6v-42.1C274,209.3,281,217.4,281.6,227.1z M230.4,227.1
			c0.6-9.7,7.6-17.9,17.1-20v40C238,245,231,236.9,230.4,227.1L230.4,227.1z M281.6,286.9c-0.6,9.7-7.6,17.9-17.1,20v-40
			C274,269,281,277.1,281.6,286.9L281.6,286.9z"/>
		<path id="Shape_00000001638294571106597350000011345783730790729870_" class="st0" d="M435.2,350.9h34.1c4.7,0,8.5-3.8,8.5-8.5
			v-34.1c0-4.7-3.8-8.5-8.5-8.5c-4.7,0-8.5,3.8-8.5,8.5v25.6h-25.6c-4.7,0-8.5,3.8-8.5,8.5S430.5,350.9,435.2,350.9z"/>
		<path id="Shape_00000009569340737426885260000016099849780290420147_" class="st0" d="M42.7,299.7c-4.7,0-8.5,3.8-8.5,8.5v34.1
			c0,4.7,3.8,8.5,8.5,8.5h34.1c4.7,0,8.5-3.8,8.5-8.5s-3.8-8.5-8.5-8.5H51.2v-25.6C51.2,303.5,47.4,299.7,42.7,299.7z"/>
		<path id="Shape_00000036971336090894192430000014804266058098697884_" class="st0" d="M76.8,163.1H42.7c-4.7,0-8.5,3.8-8.5,8.5
			v34.1c0,4.7,3.8,8.5,8.5,8.5s8.5-3.8,8.5-8.5v-25.6h25.6c4.7,0,8.5-3.8,8.5-8.5S81.5,163.1,76.8,163.1z"/>
		<path id="Shape_00000175310613536200648380000018335000496938117514_" class="st0" d="M435.2,180.2h25.6v25.6
			c0,4.7,3.8,8.5,8.5,8.5c4.7,0,8.5-3.8,8.5-8.5v-34.1c0-4.7-3.8-8.5-8.5-8.5h-34.1c-4.7,0-8.5,3.8-8.5,8.5S430.5,180.2,435.2,180.2
			z"/>
	</g>
</g>
</svg>
