<?xml version="1.0" encoding="utf-8"?>
<!-- Generator: Adobe Illustrator 28.1.0, SVG Export Plug-In . SVG Version: 6.00 Build 0)  -->
<svg version="1.1" id="b55a0956-6ec1-4f5c-9990-e0f55b1e3a06"
	 xmlns="http://www.w3.org/2000/svg" xmlns:xlink="http://www.w3.org/1999/xlink" x="0px" y="0px" viewBox="0 0 64 64"
	 style="enable-background:new 0 0 64 64;" xml:space="preserve">
<style type="text/css">
	.st0{fill:#C6DD30;}
</style>
<path class="st0" d="M18.4,18.2c-3.2,2-5.3,6.3-5.8,10.9c-0.1,0.5,0.3,1,0.8,1.1c0.5,0.1,1-0.3,1.1-0.8c0,0,0,0,0,0
	c0.4-3.9,2.3-7.9,4.8-9.5c1.1-0.4,2.3-0.6,3.5-0.5c0.5,0,1-0.5,0.9-1c0-0.5-0.4-0.9-1-0.9C21.3,17.4,19.8,17.6,18.4,18.2z"/>
<path class="st0" d="M42.3,38c0.7,1,1,2.3,1,3.5l-0.2,7c0,0-4.1-0.9-4.1-0.9c-0.4-1.6,0.5-2.8,0.4-4.3c-0.2-1.4-0.8-2.6-1.7-3.7
	c-0.4-0.5-0.5-1.3-0.9-1.8c-1.1-2-3.3-3.2-5.7-3.1l-8.6,0.7c0-2.1-0.1-4.9-0.8-6c-0.3-0.4-0.9-0.6-1.3-0.3c-0.4,0.3-0.6,0.9-0.3,1.3
	c0.4,0.6,0.6,3.1,0.5,6l-0.2,6.9c0,0.9,0.2,1.7,0.5,2.6c0.5,1.3,2,2.9,2.5,4.2l0,0.9h-4.2c-0.3-0.1-0.7-0.7-0.9-1.2
	c0.1-2.3-0.7-4.6-2.2-6.4c-0.3-0.4-0.5-0.7-0.7-1.2c-0.4-0.9-0.1-3-1.7-2.7c-1.2,0.4-0.4,1.8-0.3,2.6c-1.9,1.6-2.1,4.7-0.7,6.9
	l0.7,1.1H8.7c-1.1-0.7-0.6-2.9-0.4-3.5c0.1-0.4,0.2-0.8,0.3-1.2c0.5-2,0.1-3.8,1.3-5.5c0.5-1,0.9-2.1,1.1-3.2
	c0.3,0.7,0.8,1.6,1.7,1.1c0.5-0.3,0.6-0.9,0.4-1.3c0,0,0,0,0,0c-2.6-4.5-2.2-7.6-2.2-7.7c0.7-6.5,4.6-13.8,11.9-13.2l3,0
	c0.5,0,1-0.4,1-1c0-0.5-0.4-0.9-1-1c-3,0.1-6.3-0.3-9.1,1.2c-3,1.7-5.2,5-6.4,8.1C9.2,24,4.4,28.4,4,37.9c0,0.5,0.4,1,0.9,1
	c0.5,0,1-0.4,1-0.9c0.1-3.8,1.2-7.5,3.2-10.7c-0.1,0.4-0.1,0.8-0.2,1.2c-0.1,1.8,0.1,3.6,0.8,5.2C9.4,35,8.8,38,8.3,39
	c-1.5,2.1-1,4.8-1.8,7.2c-0.8,3-0.2,5.4,2,6l5.9,0c0.5,0,1-0.4,1-1V50c0.1-0.4-0.9-1.6-1.1-2c-0.7-1-0.8-2.3-0.4-3.5
	c0.3-0.7,0.3-0.5,0.6,0c1.3,1.6,1.9,3.6,1.8,5.7c0.1,0.2,0.8,2.4,2.6,2.7c0,0,5.4,0,5.4,0c0.5,0,1-0.4,1-1v-2.1
	c-0.4-1.2-1-2.3-1.8-3.3c-0.8-0.9-1.2-2-1.2-3.2l0.2-6l5.8-0.5c0.1,2,1.2,6-0.4,7.5c-0.1,0.1-2.8,3.6-0.5,6.5
	c0.2,0.2,0.5,0.4,0.8,0.4h6.1c0.5,0,1-0.4,1-1c0,0,0-0.1,0-0.1c-0.2-1.2-0.5-2.3-1-3.4c-0.2-0.3-0.2-0.7,0-1.1
	c0.9-1.5,1.6-3.1,2.1-4.7c0.6,0.7,1,1.6,1.1,2.5c0,1.8-1.1,3.1-0.1,5.4c0.1,0.3,0.4,0.5,0.7,0.6l5.5,1.2c0.5,0.1,1-0.2,1.1-0.7
	c0.1-0.4,0.2-0.8,0.3-1.2l0.2-7.1c0.1-1.5-0.3-2.9-1-4.2C43.6,35.9,41.7,36.5,42.3,38z M34.8,39.1c-0.5,2-1.3,3.8-2.3,5.6
	c-1,1.6,0.1,3.1,0.6,4.6h-4.4c-0.8-1.5,0.5-3.3,0.7-3.6c2.1-2,1.2-6.2,0.9-8.9l1-0.1c1.5-0.1,2.9,0.6,3.7,1.8L34.8,39.1z"/>
<path class="st0" d="M56.5,34.4c-1.5,2-4.3,2.6-6.5,1.5c-1.8-0.9-3.1-3-3.8-6.1l-0.8-3.6c-0.1-0.5-0.6-0.8-1.2-0.7
	c-0.5,0.1-0.8,0.6-0.7,1.1L44,29c-1.1,0.7-2.5,1.1-3.8,1c-0.4-0.6-0.9-1.2-1.5-1.6c-0.5-0.3-1-0.1-1.3,0.3c-0.3,0.4-0.1,1,0.3,1.3
	c0.9,0.5,2.4,3.4,3,4.4c0.3,0.5,0.8,0.6,1.3,0.4c0.5-0.2,0.6-0.8,0.4-1.3c-0.2-0.5-0.6-1.1-0.9-1.7c1.1-0.1,2.1-0.4,3.1-0.9
	c1,3.2,2.5,5.5,4.6,6.6c3.1,1.6,6.8,0.7,8.9-2c0.3-0.4,0.2-1-0.2-1.4C57.4,33.9,56.8,34,56.5,34.4z"/>
<path class="st0" d="M57.7,26.4c-0.9,0-1.7,0.6-2.1,1.4c-0.2,0.5-0.5,1.2-0.6,1.5c-0.3,0.9-0.9,1.6-1.7,2.2
	c-0.5,0.1-0.7-0.1-0.7-0.8c0.1-3.2,0.1-6.4-0.1-9.7c-0.6-5.6-5.4-7.3-8.3-7.5c-2.5-3-6.8-3.4-9.8-0.9c-0.4,0.3-0.8,0.7-1.1,1.1
	l-3.7,0c-0.5,0-1,0.4-1,1c0,0.5,0.4,0.9,1,1h2.5c-1.9,4.7-0.2,8.4,2.6,10c0.5,0.3,1.1,0.1,1.3-0.3c0.3-0.4,0.1-1-0.3-1.3
	c-1.6-1-2.5-2.7-2.4-4.6c0-1.5,0.5-3.1,1.4-4.3c1.6-2.3,4.7-2.9,7-1.3c0.5,0.3,0.9,0.8,1.3,1.2c0.2,0.2,0.5,0.4,0.8,0.4
	c0.3,0,6.2,0.1,6.8,5.7c0.1,3.1,0.1,6.3,0.1,9.5c-0.2,1.3,0.7,2.6,2.1,2.8c0.4,0.1,0.9,0,1.3-0.2c1.8-0.9,2.6-3,3.4-4.8
	c0.1-0.3,0.6-0.2,0.6,0.1c0,0.9,0,1.8-0.2,2.6c-0.1,0.5,0.3,1,0.8,1.1c0.5,0.1,1-0.2,1.1-0.8C60.2,29.8,60.4,26.4,57.7,26.4z"/>
<path class="st0" d="M47.8,21.4c0-0.6-0.5-1.1-1.2-1.1c-0.6,0-1.1,0.5-1.1,1.1c0,0.6,0.5,1.1,1.2,1.1C47.3,22.5,47.8,22,47.8,21.4z"
	/>
</svg>
