<svg xmlns="http://www.w3.org/2000/svg" xmlns:xlink="http://www.w3.org/1999/xlink" width="1920" height="1080" viewBox="0 0 1920 1080">
  <defs>
    <linearGradient id="linear-gradient" y1="0.5" x2="1" y2="0.5" gradientUnits="objectBoundingBox">
      <stop offset="0" stop-color="#b7b722"/>
      <stop offset="0.51" stop-color="#d6db47"/>
      <stop offset="1" stop-color="#b7b722"/>
    </linearGradient>
    <linearGradient id="linear-gradient-2" y1="0.5" x2="1" y2="0.5" gradientUnits="objectBoundingBox">
      <stop offset="0.06" stop-color="#b7b722"/>
      <stop offset="0.39" stop-color="#d6db47"/>
    </linearGradient>
    <linearGradient id="linear-gradient-3" y1="0.5" x2="1" y2="0.5" gradientUnits="objectBoundingBox">
      <stop offset="0" stop-color="#b7b722"/>
      <stop offset="0.51" stop-color="#d6db47"/>
    </linearGradient>
    <clipPath id="clip-path">
      <path id="Pfad_395" data-name="Pfad 395" d="M480.025,180.708H416.754a75.926,75.926,0,0,0-151.852,0H201.63c0-76.733,62.422-139.2,139.2-139.2S480.025,103.932,480.025,180.708Z" transform="translate(-201.63 -41.51)" fill="none"/>
    </clipPath>
    <linearGradient id="linear-gradient-4" y1="0.5" x2="1" y2="0.5" gradientUnits="objectBoundingBox">
      <stop offset="0" stop-color="#d6db47"/>
      <stop offset="0.61" stop-color="#d6db47"/>
    </linearGradient>
    <clipPath id="clip-Logo_gross">
      <rect width="1920" height="1080"/>
    </clipPath>
  </defs>
  <g id="Logo_gross" data-name="Logo gross" clip-path="url(#clip-Logo_gross)">
    <rect width="1920" height="1080" fill="transparent"/>
    <g id="Logoentwurf_plasitcredits_02" transform="translate(349.01 232.273)">
      <g id="Ebene_1" data-name="Ebene 1" transform="translate(36.49 35.06)">
        <path id="Pfad_370" data-name="Pfad 370" d="M147.746,105.864a42.4,42.4,0,0,1-15.924,18.175c-7.3,4.8-16.476,7.728-27.389,8.748l-16.816,1.571,4.077,42.974-42.422,3.992L36.49,46.074l59.2-5.605q24.842-2.357,39.279,9,14.459,11.338,16.476,32.57a46.122,46.122,0,0,1-3.737,23.78Zm-39.237-19.7q-1.147-12.421-14.353-11.168L82.139,76.139l2.336,24.842,12.017-1.147q13.185-1.274,12.017-13.673Z" transform="translate(-36.49 -18.812)" fill="#fff"/>
        <path id="Pfad_371" data-name="Pfad 371" d="M114.315,141.878l41.02-1.953,1.529,32.188-83.57,3.949L66.84,40.388l42.549-2.038,4.926,103.485Z" transform="translate(62.039 -24.379)" fill="#fff"/>
        <path id="Pfad_372" data-name="Pfad 372" d="M185.3,153.128l-45.267-.085-6.752,20.51-44.715-.085L138.508,37.71l49.131.085L236.9,173.723l-44.885-.085-6.667-20.553Zm-10.276-32.06L162.8,83.232,150.44,121.025h24.544Z" transform="translate(132.584 -26.457)" fill="#fff"/>
        <path id="Pfad_373" data-name="Pfad 373" d="M140.4,164.291q-15.223-12.166-15.5-34.269l45.224,2.208c.255,7.813,3.525,11.89,9.767,12.187a10.059,10.059,0,0,0,5.945-1.359,5.669,5.669,0,0,0,2.633-4.968c.17-3.185-1.444-5.86-4.8-8.026s-8.62-4.671-15.754-7.6a169.473,169.473,0,0,1-21.1-10.064A41.77,41.77,0,0,1,132.8,98.854q-5.733-8.726-4.883-21.954.637-13.249,7.9-22.166A41.843,41.843,0,0,1,155.092,41.57a70.526,70.526,0,0,1,26.795-3.482q24.905,1.21,39.025,13.461,14.077,12.23,13.843,33.165l-45.819-2.251c.042-3.822-.764-6.624-2.463-8.365a9.233,9.233,0,0,0-6.412-2.8,5.915,5.915,0,0,0-4.5,1.614,7.246,7.246,0,0,0-2,5.011c-.17,3.057,1.4,5.69,4.714,7.813,3.27,2.166,8.578,4.8,15.839,7.983a185.131,185.131,0,0,1,20.723,10.234,45.862,45.862,0,0,1,13.886,12.994q5.733,8.153,5.181,20.043a40.262,40.262,0,0,1-25.818,36.6q-11.975,4.968-28.069,4.2-24.332-1.21-39.577-13.376Z" transform="translate(250.526 -25.56)" fill="#fff"/>
        <path id="Pfad_374" data-name="Pfad 374" d="M271.287,48.785l-2.76,33.674-35.967-2.972L224.151,181.23l-42.464-3.525L190.1,75.962l-35.585-2.93L157.27,39.4l113.974,9.385Z" transform="translate(346.653 -20.971)" fill="#fff"/>
        <path id="Pfad_375" data-name="Pfad 375" d="M238.855,46.226,225.309,181.39l-42.379-4.246L196.476,41.98Z" transform="translate(438.916 -12.595)" fill="#fff"/>
        <path id="Pfad_376" data-name="Pfad 376" d="M100.6,107.737a59.167,59.167,0,0,1,25.861-21.784c10.659-4.671,22.8-6.285,36.434-4.756q17.517,1.911,30.659,10.022a58.55,58.55,0,0,1,20.468,21.062,68.06,68.06,0,0,1,8.45,29.3l-44.63-4.926a24.4,24.4,0,0,0-7.516-11.338,23.188,23.188,0,0,0-12.485-5.138c-7.134-.807-13.036,1.274-17.75,6.157s-7.559,11.848-8.578,20.85c-.977,9.045.3,16.434,3.822,22.251,3.525,5.775,8.875,9.087,16.009,9.852A23.04,23.04,0,0,0,164.64,177a24.3,24.3,0,0,0,9.809-9.427l44.63,4.926a68.15,68.15,0,0,1-14.608,26.753,58.549,58.549,0,0,1-24.544,16.136c-9.724,3.355-20.383,4.416-32.1,3.142Q127.442,216.3,113.3,205.957a58.9,58.9,0,0,1-20.51-26.88q-6.37-16.561-4.161-36.562,2.229-20,12.017-34.778Z" transform="translate(130.911 112.907)" fill="#fff"/>
        <path id="Pfad_377" data-name="Pfad 377" d="M189.013,225.275l-20.425-51.084h-.17l-4.968,48.452-42.379-4.331L134.956,83.19l62.974,6.455c10.956,1.1,20.085,4.034,27.474,8.705,7.346,4.671,12.654,10.574,15.839,17.623a44.278,44.278,0,0,1,3.482,23.228,40.252,40.252,0,0,1-10.022,23.27c-5.733,6.5-13.5,10.786-23.228,12.867l24.077,54.736-46.583-4.8ZM171.305,145.91l16.816,1.741c4.077.425,7.219-.17,9.427-1.826,2.208-1.614,3.525-4.416,3.949-8.365.382-3.567-.382-6.455-2.293-8.705-1.868-2.251-4.8-3.567-8.748-3.992l-16.816-1.741Z" transform="translate(238.092 121.19)" fill="#fff"/>
        <path id="Pfad_378" data-name="Pfad 378" d="M201.175,123.136l-1.232,16.646,42.082,3.142-2.378,31.933-42.082-3.142-1.444,19.151,47.815,3.567-2.505,33.886-90.321-6.709L161.217,86.15l90.321,6.709L249.033,126.7l-47.815-3.567Z" transform="translate(335.615 130.8)" fill="#fff"/>
        <path id="Pfad_379" data-name="Pfad 379" d="M273.516,98.391a60.6,60.6,0,0,1,24.2,24.417c5.563,10.319,8.238,22.039,7.983,35.075-.255,12.909-3.312,24.5-9.257,34.736a62.126,62.126,0,0,1-25.1,23.992q-16.179,8.6-37.5,8.238l-56.6-1.019,2.505-135.8,56.6,1.019q21.274.382,37.156,9.342Zm-19.788,81.022q8.6-7.707,8.833-22.294.255-14.586-8.026-22.591-8.281-8.026-22.676-8.281l-10.149-.17-1.1,60.639,10.149.17q14.4.255,22.973-7.431Z" transform="translate(420.476 136.903)" fill="#fff"/>
        <path id="Pfad_380" data-name="Pfad 380" d="M253.129,87.76l6.5,135.673-42.549,2.038L210.58,89.8Z" transform="translate(528.68 136.026)" fill="#fff"/>
        <path id="Pfad_381" data-name="Pfad 381" d="M335.957,84.73l3.992,33.547-35.8,4.289,12.1,101.362-42.294,5.053-12.1-101.362-35.415,4.246L222.45,98.319,336,84.73Z" transform="translate(567.215 126.19)" fill="#fff"/>
        <path id="Pfad_382" data-name="Pfad 382" d="M288.392,215.779q-17.962-7.58-24.2-28.791l44.12-10.106c2.378,7.474,6.582,10.489,12.7,9.087a10.238,10.238,0,0,0,5.35-2.888,5.683,5.683,0,0,0,1.189-5.478c-.722-3.1-2.972-5.266-6.794-6.412a107.717,107.717,0,0,0-17.24-3.057,180.354,180.354,0,0,1-23.058-3.949,42.105,42.105,0,0,1-17.2-9.257c-5.266-4.586-8.79-11.168-10.659-19.788-1.953-8.62-1.444-16.434,1.614-23.483a42.274,42.274,0,0,1,14.99-17.92,70.168,70.168,0,0,1,24.842-10.616q24.332-5.542,41.19,2.378,16.88,7.962,22.294,28.154l-44.715,10.234c-.977-3.694-2.548-6.157-4.629-7.389a9.292,9.292,0,0,0-6.922-.977,5.778,5.778,0,0,0-3.907,2.76,7.214,7.214,0,0,0-.552,5.35c.679,2.973,2.888,5.1,6.667,6.242,3.737,1.189,9.554,2.293,17.41,3.4a181.88,181.88,0,0,1,22.718,4.246,44.868,44.868,0,0,1,16.858,8.748c5.181,4.2,8.62,10.149,10.4,17.877a40.206,40.206,0,0,1-14.9,42.167c-6.752,5.35-15.415,9.257-25.861,11.635-15.839,3.609-29.725,2.93-41.742-2.166Z" transform="translate(661.321 113.531)" fill="#fff"/>
        <path id="Pfad_383" data-name="Pfad 383" d="M480.025,180.708H416.754a75.926,75.926,0,0,0-151.852,0H201.63c0-76.733,62.422-139.2,139.2-139.2S480.025,103.932,480.025,180.708Z" transform="translate(499.624 -14.121)" fill="url(#linear-gradient)"/>
        <path id="Pfad_384" data-name="Pfad 384" d="M347.615,191.626c-76.393,0-138.6-61.87-139.155-138.136a1.071,1.071,0,0,1,1.019-1.062H270.67a1.033,1.033,0,0,1,1.019,1.019,76.017,76.017,0,0,0,75.926,74.907c58.049,0,75.331-50.872,75.926-92.232A1.051,1.051,0,0,1,424.6,35.06h61.064a1.124,1.124,0,0,1,1.1,1.1c-.595,76.223-43.144,152.829-139.155,155.462Z" transform="translate(521.797 -35.06)" fill="url(#linear-gradient-2)"/>
        <path id="Pfad_385" data-name="Pfad 385" d="M264.9,180.708H201.63c0-76.733,62.422-139.2,139.2-139.2v63.272A76.007,76.007,0,0,0,264.9,180.708Z" transform="translate(499.624 -14.121)" fill="url(#linear-gradient-3)"/>
        <text id="T" transform="translate(702.686 436.251) rotate(-1.05)" fill="#fff" font-size="46" font-family="Poppins-Black, Poppins" font-weight="800"><tspan x="0" y="0">T</tspan></text>
        <text id="R" transform="translate(731.181 433.744) rotate(-2.08)" fill="#fff" font-size="44" font-family="Poppins-Black, Poppins" font-weight="800"><tspan x="0" y="0">R</tspan></text>
        <text id="A" transform="translate(762.131 430.648) rotate(-3.29)" fill="#fff" font-size="42" font-family="Poppins-Black, Poppins" font-weight="800"><tspan x="0" y="0">A</tspan></text>
        <text id="S" transform="translate(798.137 432.565) rotate(-4.52)" fill="#fff" font-size="46" font-family="Poppins-Black, Poppins" font-weight="800"><tspan x="0" y="0">S</tspan></text>
        <text id="H" transform="translate(826.769 427.336) rotate(-5.82)" fill="#fff" font-size="43" font-family="Poppins-Black, Poppins" font-weight="800"><tspan x="0" y="0">H</tspan></text>
        <text id="I" transform="translate(868.711 417.807) rotate(-7.24)" fill="#fff" font-size="38" font-family="Poppins-Black, Poppins" font-weight="800"><tspan x="0" y="0">I</tspan></text>
        <text id="S-2" data-name="S" transform="translate(884.529 423.924) rotate(-8.26)" fill="#fff" font-size="46" font-family="Poppins-Black, Poppins" font-weight="800"><tspan x="0" y="0">S</tspan></text>
        <text id="C" transform="translate(920.328 415.638) rotate(-10.26)" fill="#fff" font-size="43" font-family="Poppins-Black, Poppins" font-weight="800"><tspan x="0" y="0">C</tspan></text>
        <text id="A-2" data-name="A" transform="translate(954.227 408.543) rotate(-12.22)" fill="#fff" font-size="42" font-family="Poppins-Black, Poppins" font-weight="800"><tspan x="0" y="0">A</tspan></text>
        <text id="S-3" data-name="S" transform="translate(990.133 404.79) rotate(-14.23)" fill="#fff" font-size="46" font-family="Poppins-Black, Poppins" font-weight="800"><tspan x="0" y="0">S</tspan></text>
        <text id="H-2" data-name="H" transform="matrix(0.959, -0.283, 0.283, 0.959, 1017.203, 394.893)" fill="#fff" font-size="43" font-family="Poppins-Black, Poppins" font-weight="800"><tspan x="0" y="0">H</tspan></text>
      </g>
      <g id="Ebene_2" data-name="Ebene 2" transform="translate(737.744 35.102)">
        <g id="Gruppe_829" data-name="Gruppe 829" transform="translate(0 27.347)" clip-path="url(#clip-path)">
          <path id="Pfad_386" data-name="Pfad 386" d="M269.582,46.29H247.033L235.78,65.781l11.253,19.534h22.549l11.253-19.534Z" transform="translate(-90.765 -25.992)" fill="none" stroke="#fff" stroke-miterlimit="10" stroke-width="1"/>
          <path id="Pfad_387" data-name="Pfad 387" d="M259.582,52.29H237.033L225.78,71.781l11.253,19.534h22.549l11.253-19.534Z" transform="translate(-123.229 -6.514)" fill="none" stroke="#fff" stroke-miterlimit="10" stroke-width="1"/>
          <path id="Pfad_388" data-name="Pfad 388" d="M239.582,41.29H217.033L205.78,60.781l11.253,19.534h22.549l11.253-19.534Z" transform="translate(-188.157 -42.224)" fill="none" stroke="#fff" stroke-miterlimit="10" stroke-width="1"/>
          <path id="Pfad_389" data-name="Pfad 389" d="M279.582,52.29H257.033L245.78,71.781l11.253,19.534h22.549l11.253-19.534Z" transform="translate(-58.301 -6.514)" fill="none" stroke="#fff" stroke-miterlimit="10" stroke-width="1"/>
          <path id="Pfad_390" data-name="Pfad 390" d="M259.582,40.29H237.033L225.78,59.781l11.253,19.534h22.549l11.253-19.534Z" transform="translate(-123.229 -45.471)" fill="none" stroke="#fff" stroke-miterlimit="10" stroke-width="1"/>
          <path id="Pfad_391" data-name="Pfad 391" d="M249.582,46.29H227.033L215.78,65.781l11.253,19.534h22.549l11.253-19.534Z" transform="translate(-155.693 -25.992)" fill="none" stroke="#fff" stroke-miterlimit="10" stroke-width="1"/>
          <path id="Pfad_392" data-name="Pfad 392" d="M249.582,35.29H227.033L215.78,54.781l11.253,19.534h22.549l11.253-19.534Z" transform="translate(-155.693 -61.703)" fill="none" stroke="#fff" stroke-miterlimit="10" stroke-width="1"/>
          <path id="Pfad_393" data-name="Pfad 393" d="M279.582,40.29H257.033L245.78,59.781l11.253,19.534h22.549l11.253-19.534Z" transform="translate(-58.301 -45.471)" fill="none" stroke="#fff" stroke-miterlimit="10" stroke-width="1"/>
          <path id="Pfad_394" data-name="Pfad 394" d="M269.582,34.35H247.033L235.78,53.884l11.253,19.491h22.549l11.253-19.491Z" transform="translate(-90.765 -64.754)" fill="none" stroke="#fff" stroke-miterlimit="10" stroke-width="1"/>
        </g>
        <path id="Pfad_396" data-name="Pfad 396" d="M241.23,128.364c58.049,0,75.332-50.872,75.926-92.232a1.051,1.051,0,0,1,1.062-1.062h61.063a1.124,1.124,0,0,1,1.1,1.1C379.791,112.4,337.242,189,241.23,191.636" transform="translate(-73.072 -35.07)" fill="url(#linear-gradient-4)"/>
      </g>
    </g>
    <g id="Logoentwurf_plasitcredits_02-2" data-name="Logoentwurf_plasitcredits_02" transform="translate(349.01 232.273)" opacity="0.546">
      <g id="Ebene_1-2" data-name="Ebene 1" transform="translate(36.49 35.06)">
        <path id="Pfad_370-2" data-name="Pfad 370" d="M147.746,105.864a42.4,42.4,0,0,1-15.924,18.175c-7.3,4.8-16.476,7.728-27.389,8.748l-16.816,1.571,4.077,42.974-42.422,3.992L36.49,46.074l59.2-5.605q24.842-2.357,39.279,9,14.459,11.338,16.476,32.57a46.122,46.122,0,0,1-3.737,23.78Zm-39.237-19.7q-1.147-12.421-14.353-11.168L82.139,76.139l2.336,24.842,12.017-1.147q13.185-1.274,12.017-13.673Z" transform="translate(-36.49 -18.812)" fill="#fff"/>
        <path id="Pfad_371-2" data-name="Pfad 371" d="M114.315,141.878l41.02-1.953,1.529,32.188-83.57,3.949L66.84,40.388l42.549-2.038,4.926,103.485Z" transform="translate(62.039 -24.379)" fill="#fff"/>
        <path id="Pfad_372-2" data-name="Pfad 372" d="M185.3,153.128l-45.267-.085-6.752,20.51-44.715-.085L138.508,37.71l49.131.085L236.9,173.723l-44.885-.085-6.667-20.553Zm-10.276-32.06L162.8,83.232,150.44,121.025h24.544Z" transform="translate(132.584 -26.457)" fill="#fff"/>
        <path id="Pfad_373-2" data-name="Pfad 373" d="M140.4,164.291q-15.223-12.166-15.5-34.269l45.224,2.208c.255,7.813,3.525,11.89,9.767,12.187a10.059,10.059,0,0,0,5.945-1.359,5.669,5.669,0,0,0,2.633-4.968c.17-3.185-1.444-5.86-4.8-8.026s-8.62-4.671-15.754-7.6a169.473,169.473,0,0,1-21.1-10.064A41.77,41.77,0,0,1,132.8,98.854q-5.733-8.726-4.883-21.954.637-13.249,7.9-22.166A41.843,41.843,0,0,1,155.092,41.57a70.526,70.526,0,0,1,26.795-3.482q24.905,1.21,39.025,13.461,14.077,12.23,13.843,33.165l-45.819-2.251c.042-3.822-.764-6.624-2.463-8.365a9.233,9.233,0,0,0-6.412-2.8,5.915,5.915,0,0,0-4.5,1.614,7.246,7.246,0,0,0-2,5.011c-.17,3.057,1.4,5.69,4.714,7.813,3.27,2.166,8.578,4.8,15.839,7.983a185.131,185.131,0,0,1,20.723,10.234,45.862,45.862,0,0,1,13.886,12.994q5.733,8.153,5.181,20.043a40.262,40.262,0,0,1-25.818,36.6q-11.975,4.968-28.069,4.2-24.332-1.21-39.577-13.376Z" transform="translate(250.526 -25.56)" fill="#fff"/>
        <path id="Pfad_374-2" data-name="Pfad 374" d="M271.287,48.785l-2.76,33.674-35.967-2.972L224.151,181.23l-42.464-3.525L190.1,75.962l-35.585-2.93L157.27,39.4l113.974,9.385Z" transform="translate(346.653 -20.971)" fill="#fff"/>
        <path id="Pfad_375-2" data-name="Pfad 375" d="M238.855,46.226,225.309,181.39l-42.379-4.246L196.476,41.98Z" transform="translate(438.916 -12.595)" fill="#fff"/>
        <path id="Pfad_376-2" data-name="Pfad 376" d="M100.6,107.737a59.167,59.167,0,0,1,25.861-21.784c10.659-4.671,22.8-6.285,36.434-4.756q17.517,1.911,30.659,10.022a58.55,58.55,0,0,1,20.468,21.062,68.06,68.06,0,0,1,8.45,29.3l-44.63-4.926a24.4,24.4,0,0,0-7.516-11.338,23.188,23.188,0,0,0-12.485-5.138c-7.134-.807-13.036,1.274-17.75,6.157s-7.559,11.848-8.578,20.85c-.977,9.045.3,16.434,3.822,22.251,3.525,5.775,8.875,9.087,16.009,9.852A23.04,23.04,0,0,0,164.64,177a24.3,24.3,0,0,0,9.809-9.427l44.63,4.926a68.15,68.15,0,0,1-14.608,26.753,58.549,58.549,0,0,1-24.544,16.136c-9.724,3.355-20.383,4.416-32.1,3.142Q127.442,216.3,113.3,205.957a58.9,58.9,0,0,1-20.51-26.88q-6.37-16.561-4.161-36.562,2.229-20,12.017-34.778Z" transform="translate(130.911 112.907)" fill="#fff"/>
        <path id="Pfad_377-2" data-name="Pfad 377" d="M189.013,225.275l-20.425-51.084h-.17l-4.968,48.452-42.379-4.331L134.956,83.19l62.974,6.455c10.956,1.1,20.085,4.034,27.474,8.705,7.346,4.671,12.654,10.574,15.839,17.623a44.278,44.278,0,0,1,3.482,23.228,40.252,40.252,0,0,1-10.022,23.27c-5.733,6.5-13.5,10.786-23.228,12.867l24.077,54.736-46.583-4.8ZM171.305,145.91l16.816,1.741c4.077.425,7.219-.17,9.427-1.826,2.208-1.614,3.525-4.416,3.949-8.365.382-3.567-.382-6.455-2.293-8.705-1.868-2.251-4.8-3.567-8.748-3.992l-16.816-1.741Z" transform="translate(238.092 121.19)" fill="#fff"/>
        <path id="Pfad_378-2" data-name="Pfad 378" d="M201.175,123.136l-1.232,16.646,42.082,3.142-2.378,31.933-42.082-3.142-1.444,19.151,47.815,3.567-2.505,33.886-90.321-6.709L161.217,86.15l90.321,6.709L249.033,126.7l-47.815-3.567Z" transform="translate(335.615 130.8)" fill="#fff"/>
        <path id="Pfad_379-2" data-name="Pfad 379" d="M273.516,98.391a60.6,60.6,0,0,1,24.2,24.417c5.563,10.319,8.238,22.039,7.983,35.075-.255,12.909-3.312,24.5-9.257,34.736a62.126,62.126,0,0,1-25.1,23.992q-16.179,8.6-37.5,8.238l-56.6-1.019,2.505-135.8,56.6,1.019q21.274.382,37.156,9.342Zm-19.788,81.022q8.6-7.707,8.833-22.294.255-14.586-8.026-22.591-8.281-8.026-22.676-8.281l-10.149-.17-1.1,60.639,10.149.17q14.4.255,22.973-7.431Z" transform="translate(420.476 136.903)" fill="#fff"/>
        <path id="Pfad_380-2" data-name="Pfad 380" d="M253.129,87.76l6.5,135.673-42.549,2.038L210.58,89.8Z" transform="translate(528.68 136.026)" fill="#fff"/>
        <path id="Pfad_381-2" data-name="Pfad 381" d="M335.957,84.73l3.992,33.547-35.8,4.289,12.1,101.362-42.294,5.053-12.1-101.362-35.415,4.246L222.45,98.319,336,84.73Z" transform="translate(567.215 126.19)" fill="#fff"/>
        <path id="Pfad_382-2" data-name="Pfad 382" d="M288.392,215.779q-17.962-7.58-24.2-28.791l44.12-10.106c2.378,7.474,6.582,10.489,12.7,9.087a10.238,10.238,0,0,0,5.35-2.888,5.683,5.683,0,0,0,1.189-5.478c-.722-3.1-2.972-5.266-6.794-6.412a107.717,107.717,0,0,0-17.24-3.057,180.354,180.354,0,0,1-23.058-3.949,42.105,42.105,0,0,1-17.2-9.257c-5.266-4.586-8.79-11.168-10.659-19.788-1.953-8.62-1.444-16.434,1.614-23.483a42.274,42.274,0,0,1,14.99-17.92,70.168,70.168,0,0,1,24.842-10.616q24.332-5.542,41.19,2.378,16.88,7.962,22.294,28.154l-44.715,10.234c-.977-3.694-2.548-6.157-4.629-7.389a9.292,9.292,0,0,0-6.922-.977,5.778,5.778,0,0,0-3.907,2.76,7.214,7.214,0,0,0-.552,5.35c.679,2.973,2.888,5.1,6.667,6.242,3.737,1.189,9.554,2.293,17.41,3.4a181.88,181.88,0,0,1,22.718,4.246,44.868,44.868,0,0,1,16.858,8.748c5.181,4.2,8.62,10.149,10.4,17.877a40.206,40.206,0,0,1-14.9,42.167c-6.752,5.35-15.415,9.257-25.861,11.635-15.839,3.609-29.725,2.93-41.742-2.166Z" transform="translate(661.321 113.531)" fill="#fff"/>
        <path id="Pfad_383-2" data-name="Pfad 383" d="M480.025,180.708H416.754a75.926,75.926,0,0,0-151.852,0H201.63c0-76.733,62.422-139.2,139.2-139.2S480.025,103.932,480.025,180.708Z" transform="translate(499.624 -14.121)" fill="url(#linear-gradient)"/>
        <path id="Pfad_384-2" data-name="Pfad 384" d="M347.615,191.626c-76.393,0-138.6-61.87-139.155-138.136a1.071,1.071,0,0,1,1.019-1.062H270.67a1.033,1.033,0,0,1,1.019,1.019,76.017,76.017,0,0,0,75.926,74.907c58.049,0,75.331-50.872,75.926-92.232A1.051,1.051,0,0,1,424.6,35.06h61.064a1.124,1.124,0,0,1,1.1,1.1c-.595,76.223-43.144,152.829-139.155,155.462Z" transform="translate(521.797 -35.06)" fill="url(#linear-gradient-2)"/>
        <path id="Pfad_385-2" data-name="Pfad 385" d="M264.9,180.708H201.63c0-76.733,62.422-139.2,139.2-139.2v63.272A76.007,76.007,0,0,0,264.9,180.708Z" transform="translate(499.624 -14.121)" fill="url(#linear-gradient-3)"/>
        <text id="T-2" data-name="T" transform="translate(702.686 436.251) rotate(-1.05)" fill="#fff" font-size="46" font-family="Poppins-Black, Poppins" font-weight="800"><tspan x="0" y="0">T</tspan></text>
        <text id="R-2" data-name="R" transform="translate(731.181 433.744) rotate(-2.08)" fill="#fff" font-size="44" font-family="Poppins-Black, Poppins" font-weight="800"><tspan x="0" y="0">R</tspan></text>
        <text id="A-3" data-name="A" transform="translate(762.131 430.648) rotate(-3.29)" fill="#fff" font-size="42" font-family="Poppins-Black, Poppins" font-weight="800"><tspan x="0" y="0">A</tspan></text>
        <text id="S-4" data-name="S" transform="translate(798.137 432.565) rotate(-4.52)" fill="#fff" font-size="46" font-family="Poppins-Black, Poppins" font-weight="800"><tspan x="0" y="0">S</tspan></text>
        <text id="H-3" data-name="H" transform="translate(826.769 427.336) rotate(-5.82)" fill="#fff" font-size="43" font-family="Poppins-Black, Poppins" font-weight="800"><tspan x="0" y="0">H</tspan></text>
        <text id="I-2" data-name="I" transform="translate(868.711 417.807) rotate(-7.24)" fill="#fff" font-size="38" font-family="Poppins-Black, Poppins" font-weight="800"><tspan x="0" y="0">I</tspan></text>
        <text id="S-5" data-name="S" transform="translate(884.529 423.924) rotate(-8.26)" fill="#fff" font-size="46" font-family="Poppins-Black, Poppins" font-weight="800"><tspan x="0" y="0">S</tspan></text>
        <text id="C-2" data-name="C" transform="translate(920.328 415.638) rotate(-10.26)" fill="#fff" font-size="43" font-family="Poppins-Black, Poppins" font-weight="800"><tspan x="0" y="0">C</tspan></text>
        <text id="A-4" data-name="A" transform="translate(954.227 408.543) rotate(-12.22)" fill="#fff" font-size="42" font-family="Poppins-Black, Poppins" font-weight="800"><tspan x="0" y="0">A</tspan></text>
        <text id="S-6" data-name="S" transform="translate(990.133 404.79) rotate(-14.23)" fill="#fff" font-size="46" font-family="Poppins-Black, Poppins" font-weight="800"><tspan x="0" y="0">S</tspan></text>
        <text id="H-4" data-name="H" transform="matrix(0.959, -0.283, 0.283, 0.959, 1017.203, 394.893)" fill="#fff" font-size="43" font-family="Poppins-Black, Poppins" font-weight="800"><tspan x="0" y="0">H</tspan></text>
      </g>
      <g id="Ebene_2-2" data-name="Ebene 2" transform="translate(737.744 35.102)">
        <g id="Gruppe_829-2" data-name="Gruppe 829" transform="translate(0 27.347)" clip-path="url(#clip-path)">
          <path id="Pfad_386-2" data-name="Pfad 386" d="M269.582,46.29H247.033L235.78,65.781l11.253,19.534h22.549l11.253-19.534Z" transform="translate(-90.765 -25.992)" fill="none" stroke="#fff" stroke-miterlimit="10" stroke-width="4"/>
          <path id="Pfad_387-2" data-name="Pfad 387" d="M259.582,52.29H237.033L225.78,71.781l11.253,19.534h22.549l11.253-19.534Z" transform="translate(-123.229 -6.514)" fill="none" stroke="#fff" stroke-miterlimit="10" stroke-width="4"/>
          <path id="Pfad_388-2" data-name="Pfad 388" d="M239.582,41.29H217.033L205.78,60.781l11.253,19.534h22.549l11.253-19.534Z" transform="translate(-188.157 -42.224)" fill="none" stroke="#fff" stroke-miterlimit="10" stroke-width="4"/>
          <path id="Pfad_389-2" data-name="Pfad 389" d="M279.582,52.29H257.033L245.78,71.781l11.253,19.534h22.549l11.253-19.534Z" transform="translate(-58.301 -6.514)" fill="none" stroke="#fff" stroke-miterlimit="10" stroke-width="4"/>
          <path id="Pfad_390-2" data-name="Pfad 390" d="M259.582,40.29H237.033L225.78,59.781l11.253,19.534h22.549l11.253-19.534Z" transform="translate(-123.229 -45.471)" fill="none" stroke="#fff" stroke-miterlimit="10" stroke-width="4"/>
          <path id="Pfad_391-2" data-name="Pfad 391" d="M249.582,46.29H227.033L215.78,65.781l11.253,19.534h22.549l11.253-19.534Z" transform="translate(-155.693 -25.992)" fill="none" stroke="#fff" stroke-miterlimit="10" stroke-width="4"/>
          <path id="Pfad_392-2" data-name="Pfad 392" d="M249.582,35.29H227.033L215.78,54.781l11.253,19.534h22.549l11.253-19.534Z" transform="translate(-155.693 -61.703)" fill="none" stroke="#fff" stroke-miterlimit="10" stroke-width="4"/>
          <path id="Pfad_393-2" data-name="Pfad 393" d="M279.582,40.29H257.033L245.78,59.781l11.253,19.534h22.549l11.253-19.534Z" transform="translate(-58.301 -45.471)" fill="none" stroke="#fff" stroke-miterlimit="10" stroke-width="4"/>
          <path id="Pfad_394-2" data-name="Pfad 394" d="M269.582,34.35H247.033L235.78,53.884l11.253,19.491h22.549l11.253-19.491Z" transform="translate(-90.765 -64.754)" fill="none" stroke="#fff" stroke-miterlimit="10" stroke-width="4"/>
        </g>
        <path id="Pfad_396-2" data-name="Pfad 396" d="M241.23,128.364c58.049,0,75.332-50.872,75.926-92.232a1.051,1.051,0,0,1,1.062-1.062h61.063a1.124,1.124,0,0,1,1.1,1.1C379.791,112.4,337.242,189,241.23,191.636" transform="translate(-73.072 -35.07)" fill="url(#linear-gradient-4)"/>
      </g>
    </g>
  </g>
</svg>
