<svg xmlns="http://www.w3.org/2000/svg" xmlns:xlink="http://www.w3.org/1999/xlink" width="314" height="310" viewBox="0 0 314 310">
  <defs>
    <radialGradient id="radial-gradient" cx="0.5" cy="0.5" r="0.5" gradientUnits="objectBoundingBox">
      <stop offset="0" stop-color="#7395eb"/>
      <stop offset="1" stop-color="#4242d2"/>
    </radialGradient>
    <filter id="Ellipse_46" x="59" y="52" width="208" height="208" filterUnits="userSpaceOnUse">
      <feOffset dx="5" dy="5" input="SourceAlpha"/>
      <feGaussianBlur stdDeviation="5" result="blur"/>
      <feFlood flood-opacity="0.161"/>
      <feComposite operator="in" in2="blur"/>
      <feComposite in="SourceGraphic"/>
    </filter>
    <linearGradient id="linear-gradient" y1="0.5" x2="1" y2="0.5" gradientUnits="objectBoundingBox">
      <stop offset="0" stop-color="#b7b722"/>
      <stop offset="0.51" stop-color="#d6db47"/>
      <stop offset="1" stop-color="#b7b722"/>
    </linearGradient>
    <linearGradient id="linear-gradient-2" y1="0.5" x2="1" y2="0.5" gradientUnits="objectBoundingBox">
      <stop offset="0.06" stop-color="#b7b722"/>
      <stop offset="0.39" stop-color="#d6db47"/>
    </linearGradient>
    <linearGradient id="linear-gradient-3" y1="0.5" x2="1" y2="0.5" gradientUnits="objectBoundingBox">
      <stop offset="0" stop-color="#b7b722"/>
      <stop offset="0.51" stop-color="#d6db47"/>
    </linearGradient>
    <clipPath id="clip-path">
      <path id="Pfad_436" data-name="Pfad 436" d="M151.875,93.608h-31.94a38.328,38.328,0,1,0-76.656,0H11.34a70.268,70.268,0,1,1,140.535,0Z" transform="translate(-11.34 -23.34)" fill="none"/>
    </clipPath>
    <linearGradient id="linear-gradient-4" y1="0.5" x2="1" y2="0.5" gradientUnits="objectBoundingBox">
      <stop offset="0" stop-color="#d6db47"/>
      <stop offset="0.61" stop-color="#d6db47"/>
    </linearGradient>
    <clipPath id="clip-Logo_button">
      <rect width="314" height="310"/>
    </clipPath>
  </defs>
  <g id="Logo_button" data-name="Logo button" clip-path="url(#clip-Logo_button)">
    <rect width="314" height="310" fill="transparent"/>
    <g id="Logo_button-2" data-name="Logo_button" transform="translate(69 62)">
      <g transform="matrix(1, 0, 0, 1, -69, -62)" filter="url(#Ellipse_46)">
        <circle id="Ellipse_46-2" data-name="Ellipse 46" cx="89" cy="89" r="89" transform="translate(69 62)" fill="url(#radial-gradient)"/>
      </g>
      <g id="Logo_plasitcredits_Zeichenfläche_1_Kopie_5" data-name="Logo_plasitcredits_Zeichenfläche 1 Kopie 5" transform="translate(23.058 33.331)">
        <g id="Ebene_1" data-name="Ebene 1" transform="translate(0 0)">
          <path id="Pfad_289" data-name="Pfad 289" d="M52.25,49.386a6.006,6.006,0,0,1-2.256,2.575,8.4,8.4,0,0,1-3.88,1.239l-2.382.223.577,6.088-6.009.565L36.49,40.916l8.385-.794A7.566,7.566,0,0,1,50.44,41.4a6.337,6.337,0,0,1,2.334,4.614,6.534,6.534,0,0,1-.529,3.369Zm-5.558-2.791q-.162-1.76-2.033-1.582l-1.7.162.331,3.519,1.7-.162q1.868-.18,1.7-1.937Z" transform="translate(-36.49 -38.648)" fill="#fff"/>
          <path id="Pfad_290" data-name="Pfad 290" d="M73.565,53.016l5.811-.277.217,4.56-11.838.559L66.84,38.639l6.027-.289.7,14.66Z" transform="translate(-48.583 -37.965)" fill="#fff"/>
          <path id="Pfad_291" data-name="Pfad 291" d="M102.273,54.06l-6.412-.012L94.9,56.953l-6.334-.012L95.644,37.71l6.96.012,6.978,19.255-6.358-.012-.944-2.911Zm-1.456-4.542-1.732-5.36-1.75,5.354h3.477Z" transform="translate(-57.242 -37.71)" fill="#fff"/>
          <path id="Pfad_292" data-name="Pfad 292" d="M127.1,55.878a5.957,5.957,0,0,1-2.2-4.854l6.406.313c.036,1.107.5,1.684,1.384,1.726a1.425,1.425,0,0,0,.842-.192.8.8,0,0,0,.373-.7,1.252,1.252,0,0,0-.68-1.137,14.783,14.783,0,0,0-2.232-1.077A24.008,24.008,0,0,1,128,48.527a5.917,5.917,0,0,1-1.985-1.919,4.961,4.961,0,0,1-.692-3.11,5.226,5.226,0,0,1,1.119-3.14,5.928,5.928,0,0,1,2.731-1.865,9.991,9.991,0,0,1,3.8-.493,8.861,8.861,0,0,1,5.528,1.907,5.8,5.8,0,0,1,1.961,4.7l-6.491-.319a1.626,1.626,0,0,0-.349-1.185,1.308,1.308,0,0,0-.908-.4.838.838,0,0,0-.638.229,1.026,1.026,0,0,0-.283.71,1.22,1.22,0,0,0,.668,1.107,16.3,16.3,0,0,0,2.244,1.131,26.224,26.224,0,0,1,2.936,1.45,6.5,6.5,0,0,1,1.967,1.841,4.423,4.423,0,0,1,.734,2.839,5.7,5.7,0,0,1-3.657,5.185,9.164,9.164,0,0,1-3.976.6A9.5,9.5,0,0,1,127.1,55.9Z" transform="translate(-71.718 -37.82)" fill="#fff"/>
          <path id="Pfad_293" data-name="Pfad 293" d="M171.052,40.729l-.391,4.77-5.1-.421-1.191,14.413-6.015-.5,1.191-14.413-5.041-.415L154.9,39.4l16.145,1.329Z" transform="translate(-83.516 -38.383)" fill="#fff"/>
          <path id="Pfad_294" data-name="Pfad 294" d="M190.852,42.582l-1.919,19.147-6-.6,1.919-19.147Z" transform="translate(-94.84 -39.411)" fill="#fff"/>
          <path id="Pfad_295" data-name="Pfad 295" d="M89.832,84.477A8.381,8.381,0,0,1,93.5,81.391a9.915,9.915,0,0,1,5.161-.674A10.3,10.3,0,0,1,103,82.137a8.294,8.294,0,0,1,2.9,2.984,9.641,9.641,0,0,1,1.2,4.151l-6.322-.7a3.456,3.456,0,0,0-1.065-1.606,3.285,3.285,0,0,0-1.769-.728,2.865,2.865,0,0,0-2.514.872,5.778,5.778,0,0,0-.674,6.106,2.872,2.872,0,0,0,2.268,1.4,3.264,3.264,0,0,0,1.883-.325,3.442,3.442,0,0,0,1.39-1.335l6.322.7a9.654,9.654,0,0,1-2.069,3.79,8.294,8.294,0,0,1-3.477,2.286,10.348,10.348,0,0,1-4.548.445,9.975,9.975,0,0,1-4.891-1.781,8.343,8.343,0,0,1-2.905-3.808,11.784,11.784,0,0,1,1.113-10.106Z" transform="translate(-57.036 -54.815)" fill="#fff"/>
          <path id="Pfad_296" data-name="Pfad 296" d="M130.695,103.318,127.8,96.081h-.024l-.7,6.864-6-.614,1.967-19.141,8.921.914a8.847,8.847,0,0,1,3.892,1.233,5.778,5.778,0,0,1,2.244,2.5,6.273,6.273,0,0,1,.493,3.29,5.7,5.7,0,0,1-1.42,3.3,5.889,5.889,0,0,1-3.29,1.823L137.288,104l-6.6-.68Zm-2.508-11.243,2.382.247a1.858,1.858,0,0,0,1.335-.259,1.6,1.6,0,0,0,.559-1.185,1.562,1.562,0,0,0-.325-1.233,1.784,1.784,0,0,0-1.239-.565l-2.382-.247-.331,3.242Z" transform="translate(-70.192 -55.832)" fill="#fff"/>
          <path id="Pfad_297" data-name="Pfad 297" d="M158.2,91.389l-.174,2.358,5.961.445-.337,4.524-5.961-.445-.2,2.713,6.773.505-.355,4.8-12.795-.95,1.432-19.189,12.795.95-.355,4.794-6.773-.505Z" transform="translate(-82.161 -57.011)" fill="#fff"/>
          <path id="Pfad_298" data-name="Pfad 298" d="M190.887,89.5a8.584,8.584,0,0,1,3.429,3.459,9.9,9.9,0,0,1,1.131,4.969,10.022,10.022,0,0,1-1.311,4.921,8.8,8.8,0,0,1-3.555,3.4,10.725,10.725,0,0,1-5.312,1.167l-8.019-.144L177.6,88.03l8.019.144A10.917,10.917,0,0,1,190.887,89.5Zm-2.8,11.477a4.83,4.83,0,0,0,.114-6.358,4.542,4.542,0,0,0-3.212-1.173l-1.438-.024-.156,8.59,1.438.024a4.561,4.561,0,0,0,3.254-1.053Z" transform="translate(-92.577 -57.76)" fill="#fff"/>
          <path id="Pfad_299" data-name="Pfad 299" d="M216.607,87.76l.92,19.219-6.027.289-.92-19.219Z" transform="translate(-105.858 -57.653)" fill="#fff"/>
          <path id="Pfad_300" data-name="Pfad 300" d="M238.529,84.73l.565,4.752-5.071.608,1.714,14.359-5.991.716-1.714-14.359-5.017.6-.565-4.752,16.085-1.925Z" transform="translate(-110.588 -56.446)" fill="#fff"/>
          <path id="Pfad_301" data-name="Pfad 301" d="M256.672,99.947a5.954,5.954,0,0,1-3.429-4.078l6.25-1.432c.337,1.059.932,1.486,1.8,1.287a1.45,1.45,0,0,0,.758-.409.805.805,0,0,0,.168-.776,1.25,1.25,0,0,0-.962-.908,15.261,15.261,0,0,0-2.442-.433,25.549,25.549,0,0,1-3.266-.559,5.964,5.964,0,0,1-2.436-1.311,4.975,4.975,0,0,1-1.51-2.8,5.251,5.251,0,0,1,.229-3.327,5.989,5.989,0,0,1,2.123-2.538,9.94,9.94,0,0,1,3.519-1.5,8.861,8.861,0,0,1,5.835.337,5.8,5.8,0,0,1,3.158,3.988l-6.334,1.45a1.635,1.635,0,0,0-.656-1.047,1.316,1.316,0,0,0-.98-.138.819.819,0,0,0-.553.391,1.022,1.022,0,0,0-.078.758,1.226,1.226,0,0,0,.944.884,16.568,16.568,0,0,0,2.466.481,25.765,25.765,0,0,1,3.218.6,6.356,6.356,0,0,1,2.388,1.239,4.406,4.406,0,0,1,1.474,2.532,5.7,5.7,0,0,1-2.111,5.973,9.068,9.068,0,0,1-3.663,1.648,9.482,9.482,0,0,1-5.913-.307Z" transform="translate(-122.138 -54.892)" fill="#fff"/>
        </g>
      </g>
      <g id="Turtlepng" transform="translate(34.272 86.628)">
        <path id="Pfad_424" data-name="Pfad 424" d="M151.875,93.608h-31.94a38.328,38.328,0,1,0-76.656,0H11.34a70.268,70.268,0,1,1,140.535,0Z" transform="translate(-11.34 -9.514)" fill="url(#linear-gradient)"/>
        <path id="Pfad_425" data-name="Pfad 425" d="M88.416,95.925A70.327,70.327,0,0,1,18.17,26.193a.541.541,0,0,1,.514-.536H49.574a.522.522,0,0,1,.514.514A38.374,38.374,0,0,0,88.416,63.985c29.3,0,38.028-25.68,38.328-46.559a.531.531,0,0,1,.536-.536h30.825a.568.568,0,0,1,.557.557c-.3,38.478-21.779,77.149-70.246,78.478Z" transform="translate(-3.529 -16.89)" fill="url(#linear-gradient-2)"/>
        <path id="Pfad_426" data-name="Pfad 426" d="M43.29,93.608H11.35A70.347,70.347,0,0,1,81.618,23.34V55.28A38.369,38.369,0,0,0,43.29,93.608Z" transform="translate(-11.329 -9.514)" fill="url(#linear-gradient-3)"/>
        <g id="Gruppe_831" data-name="Gruppe 831" transform="translate(0 13.826)" clip-path="url(#clip-path)">
          <path id="Pfad_427" data-name="Pfad 427" d="M62.542,28.12H51.181L45.5,37.959l5.681,9.861H62.542l5.7-9.861Z" transform="translate(27.726 -17.874)" fill="none" stroke="#fff" stroke-miterlimit="10" stroke-width="2"/>
          <path id="Pfad_428" data-name="Pfad 428" d="M52.542,34.12H41.181L35.5,43.959l5.681,9.861H52.542l5.7-9.861Z" transform="translate(16.29 -11.012)" fill="none" stroke="#fff" stroke-miterlimit="10" stroke-width="2"/>
          <path id="Pfad_429" data-name="Pfad 429" d="M32.542,23.12H21.181L15.5,32.959l5.681,9.861H32.542l5.7-9.861Z" transform="translate(-6.583 -23.592)" fill="none" stroke="#fff" stroke-miterlimit="10" stroke-width="2"/>
          <path id="Pfad_430" data-name="Pfad 430" d="M72.542,34.12H61.181L55.5,43.959l5.681,9.861H72.542l5.7-9.861Z" transform="translate(39.162 -11.012)" fill="none" stroke="#fff" stroke-miterlimit="10" stroke-width="2"/>
          <path id="Pfad_431" data-name="Pfad 431" d="M52.542,22.12H41.181L35.5,31.959l5.681,9.861H52.542l5.7-9.861Z" transform="translate(16.29 -24.735)" fill="none" stroke="#fff" stroke-miterlimit="10" stroke-width="2"/>
          <path id="Pfad_432" data-name="Pfad 432" d="M42.542,28.12H31.181L25.5,37.959l5.681,9.861H42.542l5.7-9.861Z" transform="translate(4.854 -17.874)" fill="none" stroke="#fff" stroke-miterlimit="10" stroke-width="2"/>
          <path id="Pfad_433" data-name="Pfad 433" d="M42.542,17.12H31.181L25.5,26.959l5.681,9.861H42.542l5.7-9.861Z" transform="translate(4.854 -30.453)" fill="none" stroke="#fff" stroke-miterlimit="10" stroke-width="2"/>
          <path id="Pfad_434" data-name="Pfad 434" d="M72.542,22.12H61.181L55.5,31.959l5.681,9.861H72.542l5.7-9.861Z" transform="translate(39.162 -24.735)" fill="none" stroke="#fff" stroke-miterlimit="10" stroke-width="2"/>
          <path id="Pfad_435" data-name="Pfad 435" d="M62.542,16.18H51.181L45.5,26.041l5.681,9.839H62.542l5.7-9.839Z" transform="translate(27.726 -31.528)" fill="none" stroke="#fff" stroke-miterlimit="10" stroke-width="2"/>
        </g>
        <path id="Pfad_437" data-name="Pfad 437" d="M50.94,64c29.3,0,38.028-25.68,38.328-46.559A.531.531,0,0,1,89.8,16.9h30.825a.568.568,0,0,1,.557.557c-.3,38.478-21.779,77.149-70.246,78.478" transform="translate(33.947 -16.879)" fill="url(#linear-gradient-4)"/>
      </g>
    </g>
  </g>
</svg>
