<svg xmlns="http://www.w3.org/2000/svg" xmlns:xlink="http://www.w3.org/1999/xlink" width="314" height="310" viewBox="0 0 314 310">
  <defs>
    <radialGradient id="radial-gradient" cx="0.5" cy="0.5" r="0.5" gradientUnits="objectBoundingBox">
      <stop offset="0" stop-color="#d8e3ff"/>
      <stop offset="1" stop-color="#fff"/>
    </radialGradient>
    <filter id="Ellipse_46" x="69.977" y="72.959" width="174.805" height="174.805" filterUnits="userSpaceOnUse">
      <feOffset dx="5" dy="5" input="SourceAlpha"/>
      <feGaussianBlur stdDeviation="5" result="blur"/>
      <feFlood flood-opacity="0.161"/>
      <feComposite operator="in" in2="blur"/>
      <feComposite in="SourceGraphic"/>
    </filter>
    <linearGradient id="linear-gradient" y1="0.5" x2="1" y2="0.5" gradientUnits="objectBoundingBox">
      <stop offset="0" stop-color="#b7b722"/>
      <stop offset="0.51" stop-color="#d6db47"/>
      <stop offset="1" stop-color="#b7b722"/>
    </linearGradient>
    <linearGradient id="linear-gradient-2" y1="0.5" x2="1" y2="0.5" gradientUnits="objectBoundingBox">
      <stop offset="0.06" stop-color="#b7b722"/>
      <stop offset="0.39" stop-color="#d6db47"/>
    </linearGradient>
    <linearGradient id="linear-gradient-3" y1="0.5" x2="1" y2="0.5" gradientUnits="objectBoundingBox">
      <stop offset="0" stop-color="#b7b722"/>
      <stop offset="0.51" stop-color="#d6db47"/>
    </linearGradient>
    <clipPath id="clip-path">
      <path id="Pfad_436" data-name="Pfad 436" d="M125.639,80.489H99.662a31.172,31.172,0,0,0-62.345,0H11.34a57.149,57.149,0,1,1,114.3,0Z" transform="translate(-11.34 -23.34)" fill="none"/>
    </clipPath>
    <linearGradient id="linear-gradient-4" y1="0.5" x2="1" y2="0.5" gradientUnits="objectBoundingBox">
      <stop offset="0" stop-color="#d6db47"/>
      <stop offset="0.61" stop-color="#d6db47"/>
    </linearGradient>
    <clipPath id="clip-Logo_button_negativ">
      <rect width="314" height="310"/>
    </clipPath>
  </defs>
  <g id="Logo_button_negativ" data-name="Logo button negativ" clip-path="url(#clip-Logo_button_negativ)">
    <rect width="314" height="310" fill="transparent"/>
    <g id="Gruppe_837" data-name="Gruppe 837" transform="translate(-31.023 -1073.541)">
      <g transform="matrix(1, 0, 0, 1, 31.02, 1073.54)" filter="url(#Ellipse_46)">
        <circle id="Ellipse_46-2" data-name="Ellipse 46" cx="72.402" cy="72.402" r="72.402" transform="translate(79.98 82.96)" fill="url(#radial-gradient)"/>
      </g>
      <g id="Logo_plasitcredits_Zeichenfläche_1_Kopie_5" data-name="Logo_plasitcredits_Zeichenfläche 1 Kopie 5" transform="translate(129.753 1183.608)">
        <g id="Ebene_1" data-name="Ebene 1" transform="translate(0 0)">
          <path id="Pfad_289" data-name="Pfad 289" d="M49.308,47.646a4.885,4.885,0,0,1-1.835,2.094,6.836,6.836,0,0,1-3.156,1.008l-1.937.181.47,4.951-4.888.46L36.49,40.757l6.82-.646a6.154,6.154,0,0,1,4.525,1.037,5.154,5.154,0,0,1,1.9,3.752,5.314,5.314,0,0,1-.431,2.74Zm-4.521-2.27q-.132-1.431-1.654-1.287l-1.385.132.269,2.862,1.385-.132q1.519-.147,1.385-1.575Z" transform="translate(-36.49 -38.913)" fill="#4242d2"/>
          <path id="Pfad_290" data-name="Pfad 290" d="M72.31,50.278l4.726-.225.176,3.708-9.628.455L66.84,38.585l4.9-.235.568,11.923Z" transform="translate(-51.992 -38.037)" fill="#4242d2"/>
          <path id="Pfad_291" data-name="Pfad 291" d="M99.715,51.008,94.5,51l-.778,2.363-5.152-.01L94.323,37.71l5.66.01,5.675,15.661-5.171-.01L99.72,51Zm-1.184-3.694-1.409-4.359L95.7,47.309h2.828Z" transform="translate(-63.09 -37.71)" fill="#4242d2"/>
          <path id="Pfad_292" data-name="Pfad 292" d="M126.686,52.538A4.845,4.845,0,0,1,124.9,48.59l5.21.254c.029.9.406,1.37,1.125,1.4a1.159,1.159,0,0,0,.685-.157.653.653,0,0,0,.3-.572,1.019,1.019,0,0,0-.553-.925,12.024,12.024,0,0,0-1.815-.876,19.526,19.526,0,0,1-2.432-1.159A4.813,4.813,0,0,1,125.81,45a4.035,4.035,0,0,1-.563-2.529,4.251,4.251,0,0,1,.91-2.554,4.821,4.821,0,0,1,2.221-1.517,8.126,8.126,0,0,1,3.087-.4,7.207,7.207,0,0,1,4.5,1.551,4.719,4.719,0,0,1,1.595,3.821l-5.279-.259a1.322,1.322,0,0,0-.284-.964,1.064,1.064,0,0,0-.739-.323.682.682,0,0,0-.519.186.835.835,0,0,0-.23.577.993.993,0,0,0,.543.9,13.253,13.253,0,0,0,1.825.92,21.33,21.33,0,0,1,2.388,1.179,5.284,5.284,0,0,1,1.6,1.5,3.6,3.6,0,0,1,.6,2.309,4.639,4.639,0,0,1-2.975,4.217,7.453,7.453,0,0,1-3.234.484,7.726,7.726,0,0,1-4.56-1.541Z" transform="translate(-81.646 -37.851)" fill="#4242d2"/>
          <path id="Pfad_293" data-name="Pfad 293" d="M167.964,40.481l-.318,3.88-4.144-.342-.969,11.722-4.892-.406.969-11.722-4.1-.338.318-3.875,13.131,1.081Z" transform="translate(-96.77 -38.573)" fill="#4242d2"/>
          <path id="Pfad_294" data-name="Pfad 294" d="M189.373,42.469l-1.561,15.573-4.883-.489,1.561-15.573Z" transform="translate(-111.286 -39.891)" fill="#4242d2"/>
          <path id="Pfad_295" data-name="Pfad 295" d="M89.5,83.761a6.817,6.817,0,0,1,2.979-2.51,8.064,8.064,0,0,1,4.2-.548,8.374,8.374,0,0,1,3.532,1.155,6.746,6.746,0,0,1,2.358,2.427,7.841,7.841,0,0,1,.974,3.376L98.4,87.092a2.81,2.81,0,0,0-.866-1.306,2.672,2.672,0,0,0-1.438-.592,2.33,2.33,0,0,0-2.045.709,4.7,4.7,0,0,0-.548,4.966A2.336,2.336,0,0,0,95.347,92a2.655,2.655,0,0,0,1.531-.264,2.8,2.8,0,0,0,1.13-1.086l5.142.568a7.852,7.852,0,0,1-1.683,3.082,6.746,6.746,0,0,1-2.828,1.859,8.417,8.417,0,0,1-3.7.362,8.113,8.113,0,0,1-3.978-1.448,6.785,6.785,0,0,1-2.363-3.1,9.584,9.584,0,0,1,.905-8.219Z" transform="translate(-62.827 -59.636)" fill="#4242d2"/>
          <path id="Pfad_296" data-name="Pfad 296" d="M128.9,99.56l-2.353-5.886h-.02l-.572,5.582-4.883-.5,1.6-15.568,7.255.744a7.2,7.2,0,0,1,3.165,1,4.7,4.7,0,0,1,1.825,2.03,5.1,5.1,0,0,1,.4,2.676,4.638,4.638,0,0,1-1.155,2.681,4.79,4.79,0,0,1-2.676,1.482l2.774,6.306-5.367-.553Zm-2.04-9.144,1.937.2a1.511,1.511,0,0,0,1.086-.21,1.3,1.3,0,0,0,.455-.964,1.271,1.271,0,0,0-.264-1,1.451,1.451,0,0,0-1.008-.46l-1.937-.2-.269,2.637Z" transform="translate(-79.69 -60.939)" fill="#4242d2"/>
          <path id="Pfad_297" data-name="Pfad 297" d="M156.878,90.411l-.142,1.918,4.848.362-.274,3.679-4.848-.362-.166,2.206,5.509.411-.289,3.9-10.406-.773,1.164-15.607,10.406.773-.289,3.9-5.509-.411Z" transform="translate(-95.033 -62.451)" fill="#4242d2"/>
          <path id="Pfad_298" data-name="Pfad 298" d="M188.341,89.224a6.982,6.982,0,0,1,2.789,2.813,8.048,8.048,0,0,1,.92,4.041,8.151,8.151,0,0,1-1.067,4,7.158,7.158,0,0,1-2.891,2.764,8.722,8.722,0,0,1-4.32.949l-6.522-.117.289-15.646,6.522.117A8.878,8.878,0,0,1,188.341,89.224Zm-2.28,9.335a3.928,3.928,0,0,0,.093-5.171,3.694,3.694,0,0,0-2.613-.954l-1.169-.02-.127,6.986,1.169.02a3.71,3.71,0,0,0,2.647-.856Z" transform="translate(-108.385 -63.411)" fill="#4242d2"/>
          <path id="Pfad_299" data-name="Pfad 299" d="M215.482,87.76l.749,15.631-4.9.235-.749-15.631Z" transform="translate(-125.408 -63.274)" fill="#4242d2"/>
          <path id="Pfad_300" data-name="Pfad 300" d="M235.527,84.73l.46,3.865-4.124.494,1.394,11.678-4.873.582L226.99,89.671l-4.08.489-.46-3.865,13.082-1.566Z" transform="translate(-131.471 -61.726)" fill="#4242d2"/>
          <path id="Pfad_301" data-name="Pfad 301" d="M255.7,96.378a4.843,4.843,0,0,1-2.789-3.317L257.99,91.9c.274.861.758,1.208,1.463,1.047a1.179,1.179,0,0,0,.616-.333.655.655,0,0,0,.137-.631,1.017,1.017,0,0,0-.783-.739,12.414,12.414,0,0,0-1.986-.352,20.78,20.78,0,0,1-2.657-.455,4.851,4.851,0,0,1-1.981-1.067,4.046,4.046,0,0,1-1.228-2.28,4.271,4.271,0,0,1,.186-2.706,4.871,4.871,0,0,1,1.727-2.065,8.085,8.085,0,0,1,2.862-1.223,7.206,7.206,0,0,1,4.746.274,4.715,4.715,0,0,1,2.568,3.244l-5.152,1.179a1.33,1.33,0,0,0-.533-.851,1.07,1.07,0,0,0-.8-.113.666.666,0,0,0-.45.318.831.831,0,0,0-.064.616,1,1,0,0,0,.768.719,13.476,13.476,0,0,0,2.006.391,20.955,20.955,0,0,1,2.617.489A5.17,5.17,0,0,1,264,88.37a3.583,3.583,0,0,1,1.2,2.06,4.632,4.632,0,0,1-1.717,4.858,7.375,7.375,0,0,1-2.979,1.341,7.712,7.712,0,0,1-4.809-.25Z" transform="translate(-146.277 -59.734)" fill="#4242d2"/>
        </g>
      </g>
      <g id="Turtlepng" transform="translate(138.874 1226.955)">
        <path id="Pfad_424" data-name="Pfad 424" d="M125.639,80.489H99.662a31.172,31.172,0,0,0-62.345,0H11.34a57.149,57.149,0,1,1,114.3,0Z" transform="translate(-11.34 -12.095)" fill="url(#linear-gradient)"/>
        <path id="Pfad_425" data-name="Pfad 425" d="M75.3,81.17A57.2,57.2,0,0,1,18.17,24.456a.44.44,0,0,1,.418-.436H43.711a.424.424,0,0,1,.418.418A31.21,31.21,0,0,0,75.3,55.193c23.833,0,30.928-20.886,31.172-37.867a.432.432,0,0,1,.436-.436h25.07a.462.462,0,0,1,.453.453C132.19,48.638,114.721,80.089,75.3,81.17Z" transform="translate(-6.262 -16.89)" fill="url(#linear-gradient-2)"/>
        <path id="Pfad_426" data-name="Pfad 426" d="M37.327,80.489H11.35A57.214,57.214,0,0,1,68.5,23.34V49.317A31.206,31.206,0,0,0,37.327,80.489Z" transform="translate(-11.333 -12.095)" fill="url(#linear-gradient-3)"/>
        <g id="Gruppe_831" data-name="Gruppe 831" transform="translate(0 11.245)" clip-path="url(#clip-path)">
          <path id="Pfad_427" data-name="Pfad 427" d="M59.36,28.12H50.12l-4.62,8,4.62,8.02h9.24L64,36.122Z" transform="translate(14.055 -19.786)" fill="none" stroke="#fff" stroke-miterlimit="10" stroke-width="2"/>
          <path id="Pfad_428" data-name="Pfad 428" d="M49.36,34.12H40.12l-4.62,8,4.62,8.02h9.24L54,42.122Z" transform="translate(6.621 -15.326)" fill="none" stroke="#fff" stroke-miterlimit="10" stroke-width="2"/>
          <path id="Pfad_429" data-name="Pfad 429" d="M29.36,23.12H20.12l-4.62,8,4.62,8.02h9.24L34,31.122Z" transform="translate(-8.247 -23.504)" fill="none" stroke="#fff" stroke-miterlimit="10" stroke-width="2"/>
          <path id="Pfad_430" data-name="Pfad 430" d="M69.36,34.12H60.12l-4.62,8,4.62,8.02h9.24L74,42.122Z" transform="translate(21.49 -15.326)" fill="none" stroke="#fff" stroke-miterlimit="10" stroke-width="2"/>
          <path id="Pfad_431" data-name="Pfad 431" d="M49.36,22.12H40.12l-4.62,8,4.62,8.02h9.24L54,30.122Z" transform="translate(6.621 -24.247)" fill="none" stroke="#fff" stroke-miterlimit="10" stroke-width="2"/>
          <path id="Pfad_432" data-name="Pfad 432" d="M39.36,28.12H30.12l-4.62,8,4.62,8.02h9.24L44,36.122Z" transform="translate(-0.813 -19.786)" fill="none" stroke="#fff" stroke-miterlimit="10" stroke-width="2"/>
          <path id="Pfad_433" data-name="Pfad 433" d="M39.36,17.12H30.12l-4.62,8,4.62,8.02h9.24L44,25.122Z" transform="translate(-0.813 -27.964)" fill="none" stroke="#fff" stroke-miterlimit="10" stroke-width="2"/>
          <path id="Pfad_434" data-name="Pfad 434" d="M69.36,22.12H60.12l-4.62,8,4.62,8.02h9.24L74,30.122Z" transform="translate(21.49 -24.247)" fill="none" stroke="#fff" stroke-miterlimit="10" stroke-width="2"/>
          <path id="Pfad_435" data-name="Pfad 435" d="M59.36,16.18H50.12L45.5,24.2l4.62,8h9.24L64,24.2Z" transform="translate(14.055 -28.663)" fill="none" stroke="#fff" stroke-miterlimit="10" stroke-width="2"/>
        </g>
        <path id="Pfad_437" data-name="Pfad 437" d="M50.94,55.2c23.833,0,30.928-20.886,31.172-37.867a.432.432,0,0,1,.436-.436h25.07a.462.462,0,0,1,.453.453C107.828,48.648,90.359,80.1,50.94,81.18" transform="translate(18.1 -16.883)" fill="url(#linear-gradient-4)"/>
      </g>
    </g>
  </g>
</svg>
