<?xml version="1.0" encoding="UTF-8"?>
<svg id="Ebene_1" data-name="Ebene 1" xmlns="http://www.w3.org/2000/svg" xmlns:xlink="http://www.w3.org/1999/xlink" viewBox="0 0 248.28 239.89">
  <defs>
    <style>
      .cls-1 {
        clip-path: url(#clippath);
      }

      .cls-2, .cls-3 {
        fill: none;
      }

      .cls-2, .cls-4, .cls-5, .cls-6, .cls-7, .cls-8, .cls-9 {
        stroke-width: 0px;
      }

      .cls-3 {
        stroke: #fff;
        stroke-miterlimit: 10;
        stroke-width: 2px;
      }

      .cls-4 {
        fill: url(#Unbenannter_Verlauf_5);
      }

      .cls-5 {
        fill: url(#Unbenannter_Verlauf_6);
      }

      .cls-6 {
        fill: url(#Unbenannter_Verlauf_4);
      }

      .cls-7 {
        fill: url(#Unbenannter_Verlauf_3);
      }

      .cls-8 {
        fill: url(#Unbenannter_Verlauf_2);
      }

      .cls-9 {
        fill: #fff;
      }
    </style>
    <radialGradient id="Unbenannter_Verlauf_6" data-name="Unbenannter Verlauf 6" cx="1.63" cy="841.39" fx="1.63" fy="841.39" r=".5" gradientTransform="translate(-166.86 149886.05) scale(178 -178)" gradientUnits="userSpaceOnUse">
      <stop offset="0" stop-color="#7691ca"/>
      <stop offset="1" stop-color="#414d9c"/>
    </radialGradient>
    <linearGradient id="Unbenannter_Verlauf_2" data-name="Unbenannter Verlauf 2" x1="1.17" y1="841.23" x2="2.17" y2="841.23" gradientTransform="translate(-95.13 59498.3) scale(140.54 -70.53)" gradientUnits="userSpaceOnUse">
      <stop offset="0" stop-color="#b7b722"/>
      <stop offset=".51" stop-color="#d6db47"/>
      <stop offset="1" stop-color="#b7b722"/>
    </linearGradient>
    <linearGradient id="Unbenannter_Verlauf_3" data-name="Unbenannter Verlauf 3" x1="1.17" y1="841.26" x2="2.17" y2="841.26" gradientTransform="translate(-80.44 66644.16) scale(140.49 -79.04)" gradientUnits="userSpaceOnUse">
      <stop offset=".06" stop-color="#b7b722"/>
      <stop offset=".39" stop-color="#d6db47"/>
    </linearGradient>
    <linearGradient id="Unbenannter_Verlauf_4" data-name="Unbenannter Verlauf 4" x1="1.34" y1="841.23" x2="2.34" y2="841.23" gradientTransform="translate(-24.84 59276.17) scale(70.27 -70.27)" gradientUnits="userSpaceOnUse">
      <stop offset="0" stop-color="#b7b722"/>
      <stop offset=".51" stop-color="#d6db47"/>
    </linearGradient>
    <clipPath id="clippath">
      <path class="cls-2" d="M209.6,199.72h-31.94c0-21.17-17.16-38.33-38.33-38.33-21.17,0-38.33,17.16-38.33,38.33h0s-31.94,0-31.94,0c-.15-38.81,31.2-70.39,70-70.53,38.81-.15,70.39,31.2,70.53,70,0,.18,0,.35,0,.53Z"/>
    </clipPath>
    <linearGradient id="Unbenannter_Verlauf_5" data-name="Unbenannter Verlauf 5" x1="1.34" y1="841.26" x2="2.34" y2="841.26" gradientTransform="translate(60.05 66644.18) scale(70.25 -79.04)" gradientUnits="userSpaceOnUse">
      <stop offset="0" stop-color="#d6db47"/>
      <stop offset=".61" stop-color="#d6db47"/>
    </linearGradient>
  </defs>
  <g id="Logo_button" data-name="Logo button">
    <circle id="Ellipse_46-2" data-name="Ellipse 46-2" class="cls-5" cx="123.8" cy="118" r="89"/>
    <g id="Logo_plasitcredits_Zeichenfläche_1_Kopie_5" data-name="Logo plasitcredits Zeichenfläche 1 Kopie 5">
      <g id="Ebene_1-2" data-name="Ebene 1">
        <path id="Pfad_289" data-name="Pfad 289" class="cls-9" d="M73.62,73.07c-.49,1.06-1.27,1.95-2.26,2.58-1.17.73-2.5,1.15-3.88,1.24l-2.38.22.58,6.09-6.01.56-1.81-19.16,8.38-.79c1.95-.32,3.95.14,5.56,1.28,1.4,1.14,2.25,2.81,2.33,4.61.13,1.15-.06,2.31-.53,3.37h0ZM68.06,70.28c-.11-1.17-.79-1.7-2.03-1.58l-1.7.16.33,3.52,1.7-.16c1.25-.12,1.81-.77,1.7-1.94h0Z"/>
        <path id="Pfad_290" data-name="Pfad 290" class="cls-9" d="M82.84,77.38l5.81-.28.22,4.56-11.84.56-.92-19.22,6.03-.29.7,14.66h0Z"/>
        <path id="Pfad_291" data-name="Pfad 291" class="cls-9" d="M102.89,78.68h-6.41s-.96,2.89-.96,2.89h-6.33s7.08-19.24,7.08-19.24h6.96s6.98,19.27,6.98,19.27h-6.36s-.94-2.92-.94-2.92h0ZM101.43,74.14l-1.73-5.36-1.75,5.35h3.48Z"/>
        <path id="Pfad_292" data-name="Pfad 292" class="cls-9" d="M113.24,80.39c-1.46-1.18-2.27-2.98-2.2-4.85l6.41.31c.04,1.11.5,1.68,1.38,1.73.29.02.59-.04.84-.19.24-.15.38-.42.37-.7,0-.48-.25-.92-.68-1.14-.71-.42-1.46-.78-2.23-1.08-1.03-.41-2.03-.88-2.99-1.43-.8-.47-1.48-1.13-1.99-1.92-.57-.93-.81-2.03-.69-3.11.02-1.14.41-2.24,1.12-3.14.71-.87,1.66-1.51,2.73-1.87,1.22-.41,2.51-.58,3.8-.49,2.01,0,3.95.66,5.53,1.91,1.34,1.18,2.07,2.91,1.96,4.7l-6.49-.32c.04-.43-.08-.85-.35-1.19-.24-.25-.56-.39-.91-.4-.24-.02-.47.07-.64.23-.18.19-.28.45-.28.71,0,.47.25.9.67,1.11.72.43,1.47.81,2.24,1.13,1.01.42,1.99.91,2.94,1.45.78.47,1.45,1.1,1.97,1.84.56.84.82,1.84.73,2.84-.06,2.31-1.5,4.36-3.66,5.19-1.26.49-2.62.7-3.98.6-2.02-.02-3.99-.68-5.61-1.89v-.02Z"/>
        <path id="Pfad_293" data-name="Pfad 293" class="cls-9" d="M145.39,64.68l-.39,4.77-5.1-.42-1.19,14.41-6.01-.5,1.19-14.41-5.04-.42.4-4.76,16.15,1.33h0Z"/>
        <path id="Pfad_294" data-name="Pfad 294" class="cls-9" d="M153.87,65.5l-1.92,19.15-6-.6,1.92-19.15,6,.6Z"/>
        <path id="Pfad_295" data-name="Pfad 295" class="cls-9" d="M90.65,91.99c.9-1.36,2.17-2.44,3.67-3.09,1.63-.68,3.41-.91,5.16-.67,1.53.14,3.02.63,4.34,1.42,1.2.73,2.2,1.76,2.9,2.98.71,1.28,1.12,2.69,1.2,4.15l-6.32-.7c-.2-.63-.56-1.18-1.07-1.61-.5-.41-1.12-.67-1.77-.73-.93-.14-1.87.19-2.51.87-1.38,1.74-1.64,4.11-.67,6.11.48.81,1.33,1.33,2.27,1.4.65.08,1.3-.03,1.88-.32.58-.3,1.06-.77,1.39-1.33l6.32.7c-.39,1.4-1.1,2.7-2.07,3.79-.95,1.05-2.14,1.83-3.48,2.29-1.46.49-3.02.64-4.55.44-1.76-.15-3.45-.76-4.89-1.78-1.32-.96-2.33-2.28-2.9-3.81-1.18-3.36-.77-7.08,1.11-10.11h-.01Z"/>
        <path id="Pfad_296" data-name="Pfad 296" class="cls-9" d="M118.36,109.82l-2.9-7.24h-.02l-.7,6.86-6-.61,1.97-19.14,8.92.91c1.38.1,2.71.52,3.89,1.23.98.59,1.76,1.46,2.24,2.5.46,1.03.63,2.17.49,3.29-.11,1.22-.6,2.38-1.42,3.3-.87.95-2.02,1.59-3.29,1.82l3.4,7.75-6.6-.68h0ZM115.85,98.57l2.38.25c.46.09.94,0,1.34-.26.35-.3.55-.73.56-1.18.07-.44-.05-.89-.32-1.23-.32-.34-.77-.55-1.24-.57l-2.38-.25-.33,3.24h0Z"/>
        <path id="Pfad_297" data-name="Pfad 297" class="cls-9" d="M133.89,96.71l-.17,2.36,5.96.44-.34,4.52-5.96-.44-.2,2.71,6.77.5-.35,4.8-12.79-.95,1.43-19.19,12.79.95-.35,4.79-6.77-.5h-.01Z"/>
        <path id="Pfad_298" data-name="Pfad 298" class="cls-9" d="M156.17,94.07c1.45.8,2.64,2,3.43,3.46.8,1.53,1.19,3.24,1.13,4.97,0,1.73-.46,3.42-1.31,4.92-.84,1.45-2.07,2.63-3.55,3.4-1.64.84-3.47,1.24-5.31,1.17l-8.02-.14.35-19.24,8.02.14c1.84,0,3.65.45,5.27,1.33ZM153.37,105.55c1.62-1.79,1.67-4.51.11-6.36-.88-.79-2.03-1.22-3.21-1.17l-1.44-.02-.16,8.59,1.44.02c1.18.08,2.35-.29,3.25-1.05h0Z"/>
        <path id="Pfad_299" data-name="Pfad 299" class="cls-9" d="M168.6,92.44l.92,19.22-6.03.29-.92-19.22,6.03-.29Z"/>
        <path id="Pfad_300" data-name="Pfad 300" class="cls-9" d="M185.8,90.62l.57,4.75-5.07.61,1.71,14.36-5.99.72-1.71-14.36-5.02.6-.57-4.75,16.08-1.93h0Z"/>
        <path id="Pfad_301" data-name="Pfad 301" class="cls-9" d="M192.39,107.39c-1.72-.74-2.99-2.25-3.43-4.08l6.25-1.43c.34,1.06.93,1.49,1.8,1.29.29-.06.55-.2.76-.41.19-.21.25-.51.17-.78-.12-.46-.49-.81-.96-.91-.8-.21-1.62-.36-2.44-.43-1.1-.12-2.19-.3-3.27-.56-.9-.24-1.74-.69-2.44-1.31-.8-.74-1.33-1.73-1.51-2.8-.29-1.1-.21-2.27.23-3.33.46-1.03,1.19-1.91,2.12-2.54,1.06-.72,2.26-1.23,3.52-1.5,1.93-.55,3.98-.43,5.83.34,1.61.77,2.78,2.24,3.16,3.99l-6.33,1.45c-.07-.42-.31-.8-.66-1.05-.3-.17-.65-.22-.98-.14-.23.04-.43.19-.55.39-.12.23-.15.5-.08.76.12.45.49.79.94.88.81.22,1.63.38,2.47.48,1.08.13,2.16.33,3.22.6.88.24,1.69.66,2.39,1.24.77.65,1.29,1.54,1.47,2.53.57,2.23-.26,4.59-2.11,5.97-1.08.82-2.33,1.38-3.66,1.65-1.95.53-4.03.42-5.91-.31h0Z"/>
      </g>
    </g>
    <g id="Turtlepng">
      <path id="Pfad_424" data-name="Pfad 424" class="cls-8" d="M209.6,199.72h-31.94c0-21.17-17.16-38.33-38.33-38.33-21.17,0-38.33,17.16-38.33,38.33h0s-31.94,0-31.94,0c-.15-38.81,31.2-70.39,70-70.53,38.81-.15,70.39,31.2,70.53,70,0,.18,0,.35,0,.53Z"/>
      <path id="Pfad_425" data-name="Pfad 425" class="cls-7" d="M153.96,194.66c-38.58-.04-69.92-31.16-70.25-69.73,0-.29.23-.52.51-.54h30.89c.28,0,.51.23.51.51.31,20.96,17.37,37.79,38.33,37.81,29.3,0,38.03-25.68,38.33-46.56,0-.29.23-.53.53-.54,0,0,0,0,.01,0h30.83c.31,0,.55.25.56.56-.3,38.48-21.78,77.15-70.25,78.48h0Z"/>
      <path id="Pfad_426" data-name="Pfad 426" class="cls-6" d="M101.03,199.72h-31.94c.04-38.79,31.48-70.22,70.27-70.27v31.94c-21.16.02-38.31,17.17-38.33,38.33Z"/>
      <g class="cls-1">
        <g id="Gruppe_831" data-name="Gruppe 831">
          <path id="Pfad_427" data-name="Pfad 427" class="cls-3" d="M159.34,139.7h-11.36l-5.68,9.84,5.68,9.86h11.36l5.7-9.86-5.7-9.84Z"/>
          <path id="Pfad_428" data-name="Pfad 428" class="cls-3" d="M137.9,152.56h-11.36l-5.68,9.84,5.68,9.86h11.36l5.7-9.86-5.7-9.84Z"/>
          <path id="Pfad_429" data-name="Pfad 429" class="cls-3" d="M95.03,128.98h-11.36l-5.68,9.84,5.68,9.86h11.36l5.7-9.86-5.7-9.84Z"/>
          <path id="Pfad_430" data-name="Pfad 430" class="cls-3" d="M180.77,152.56h-11.36l-5.68,9.84,5.68,9.86h11.36l5.7-9.86-5.7-9.84Z"/>
          <path id="Pfad_431" data-name="Pfad 431" class="cls-3" d="M137.9,126.84h-11.36l-5.68,9.84,5.68,9.86h11.36l5.7-9.86-5.7-9.84Z"/>
          <path id="Pfad_432" data-name="Pfad 432" class="cls-3" d="M116.47,139.7h-11.36l-5.68,9.84,5.68,9.86h11.36l5.7-9.86-5.7-9.84Z"/>
          <path id="Pfad_433" data-name="Pfad 433" class="cls-3" d="M116.47,116.12h-11.36l-5.68,9.84,5.68,9.86h11.36l5.7-9.86-5.7-9.84Z"/>
          <path id="Pfad_434" data-name="Pfad 434" class="cls-3" d="M180.77,126.84h-11.36l-5.68,9.84,5.68,9.86h11.36l5.7-9.86-5.7-9.84Z"/>
          <path id="Pfad_435" data-name="Pfad 435" class="cls-3" d="M159.34,114.11h-11.36l-5.68,9.86,5.68,9.84h11.36l5.7-9.84-5.7-9.86Z"/>
        </g>
      </g>
      <path id="Pfad_437" data-name="Pfad 437" class="cls-4" d="M153.96,162.75c29.3,0,38.03-25.68,38.33-46.56,0-.29.23-.54.52-.54,0,0,0,0,.01,0h30.82c.31,0,.55.25.56.56-.3,38.48-21.78,77.15-70.25,78.48"/>
    </g>
  </g>
</svg>