<?xml version="1.0" encoding="UTF-8"?>
<svg id="Ebene_1" data-name="Ebene 1" xmlns="http://www.w3.org/2000/svg" xmlns:xlink="http://www.w3.org/1999/xlink" viewBox="0 0 1158.28 439.89">
  <defs>
    <style>
      .cls-1 {
        clip-path: url(#clippath);
      }

      .cls-2, .cls-3, .cls-4 {
        fill: none;
      }

      .cls-2, .cls-5, .cls-6, .cls-7, .cls-8, .cls-9 {
        stroke-width: 0px;
      }

      .cls-10 {
        clip-path: url(#clippath-1);
      }

      .cls-3 {
        stroke-width: 4px;
      }

      .cls-3, .cls-4 {
        stroke: #fff;
        stroke-miterlimit: 10;
      }

      .cls-5 {
        fill: url(#Unbenannter_Verlauf_7);
      }

      .cls-6 {
        fill: url(#Unbenannter_Verlauf_8);
      }

      .cls-7 {
        fill: url(#Unbenannter_Verlauf_5);
      }

      .cls-8 {
        fill: url(#Unbenannter_Verlauf_6);
      }

      .cls-11 {
        opacity: .55;
      }

      .cls-9 {
        fill: #fff;
      }
    </style>
    <linearGradient id="Unbenannter_Verlauf_5" data-name="Unbenannter Verlauf 5" x1="311.13" y1="689.13" x2="312.13" y2="689.13" gradientTransform="translate(-85845.84 96063.64) scale(278.39 -139.2)" gradientUnits="userSpaceOnUse">
      <stop offset="0" stop-color="#b7b722"/>
      <stop offset=".51" stop-color="#d6db47"/>
      <stop offset="1" stop-color="#b7b722"/>
    </linearGradient>
    <linearGradient id="Unbenannter_Verlauf_6" data-name="Unbenannter Verlauf 6" x1="311.13" y1="689.28" x2="312.13" y2="689.28" gradientTransform="translate(-85788.46 108036.19) scale(278.3 -156.57)" gradientUnits="userSpaceOnUse">
      <stop offset=".06" stop-color="#b7b722"/>
      <stop offset=".39" stop-color="#d6db47"/>
    </linearGradient>
    <linearGradient id="Unbenannter_Verlauf_7" data-name="Unbenannter Verlauf 7" x1="310.26" y1="689.13" x2="311.26" y2="689.13" gradientTransform="translate(-42417.01 96063.64) scale(139.2 -139.2)" gradientUnits="userSpaceOnUse">
      <stop offset="0" stop-color="#b7b722"/>
      <stop offset=".51" stop-color="#d6db47"/>
    </linearGradient>
    <clipPath id="clippath">
      <path class="cls-2" d="M1050.21,206.3h-63.27c0-41.93-33.99-75.93-75.93-75.93s-75.93,33.99-75.93,75.93h-63.27c0-76.73,62.42-139.2,139.2-139.2s139.19,62.42,139.19,139.2Z"/>
    </clipPath>
    <linearGradient id="Unbenannter_Verlauf_8" data-name="Unbenannter Verlauf 8" x1="310.26" y1="689.28" x2="311.26" y2="689.28" gradientTransform="translate(-42233.57 108036.25) scale(139.15 -156.57)" gradientUnits="userSpaceOnUse">
      <stop offset="0" stop-color="#d6db47"/>
      <stop offset=".61" stop-color="#d6db47"/>
    </linearGradient>
    <clipPath id="clippath-1">
      <path class="cls-2" d="M1050.21,206.3h-63.27c0-41.93-33.99-75.93-75.93-75.93s-75.93,33.99-75.93,75.93h-63.27c0-76.73,62.42-139.2,139.2-139.2s139.19,62.42,139.19,139.2Z"/>
    </clipPath>
  </defs>
  <g id="Logoentwurf_plasitcredits_02" data-name="Logoentwurf plasitcredits 02">
    <g id="Ebene_1-2" data-name="Ebene 1">
      <path id="Pfad_370" data-name="Pfad 370" class="cls-9" d="M181.81,126.77c-3.43,7.47-8.97,13.79-15.92,18.18-7.3,4.8-16.48,7.73-27.39,8.75l-16.82,1.57,4.08,42.97-42.42,3.99-12.78-135.25,59.2-5.6c16.56-1.57,29.65,1.43,39.28,9,9.64,7.56,15.13,18.42,16.48,32.57.88,8.12-.41,16.32-3.74,23.78l.04.04ZM142.58,107.07c-.76-8.28-5.55-12-14.35-11.17l-12.02,1.14,2.34,24.84,12.02-1.15c8.79-.85,12.8-5.41,12.02-13.67h0Z"/>
      <path id="Pfad_371" data-name="Pfad 371" class="cls-9" d="M246.91,157.22l41.02-1.95,1.53,32.19-83.57,3.95-6.45-135.67,42.55-2.04,4.93,103.48v.04Z"/>
      <path id="Pfad_372" data-name="Pfad 372" class="cls-9" d="M388.44,166.39l-45.27-.09-6.75,20.51-44.71-.09,49.94-135.76,49.13.08,49.26,135.93-44.88-.09-6.67-20.55-.05.04ZM378.17,134.33l-12.22-37.84-12.36,37.79h24.54l.04.04Z"/>
      <path id="Pfad_373" data-name="Pfad 373" class="cls-9" d="M461.48,178.45c-10.15-8.11-15.32-19.53-15.5-34.27l45.22,2.21c.26,7.81,3.52,11.89,9.77,12.19,2.07.17,4.15-.3,5.95-1.36,1.69-1.07,2.7-2.96,2.63-4.97.17-3.18-1.44-5.86-4.8-8.03s-8.62-4.67-15.75-7.6c-7.26-2.86-14.31-6.23-21.1-10.06-5.67-3.35-10.48-7.99-14.01-13.55-3.82-5.82-5.45-13.14-4.88-21.95.42-8.83,3.06-16.22,7.9-22.17,5.05-6.13,11.73-10.69,19.27-13.16,8.62-2.88,17.72-4.06,26.79-3.48,16.6.81,29.61,5.29,39.02,13.46,9.38,8.15,14,19.21,13.84,33.17l-45.82-2.25c.04-3.82-.76-6.62-2.46-8.36-1.69-1.74-3.99-2.74-6.41-2.8-1.66-.12-3.29.47-4.5,1.61-1.29,1.35-2,3.15-2,5.01-.17,3.06,1.4,5.69,4.71,7.81,3.27,2.17,8.58,4.8,15.84,7.98,7.11,2.98,14.04,6.39,20.72,10.23,5.49,3.31,10.22,7.74,13.89,12.99,3.82,5.44,5.55,12.12,5.18,20.04-.4,16.3-10.59,30.75-25.82,36.6-7.98,3.31-17.34,4.71-28.07,4.2-16.22-.81-29.41-5.27-39.58-13.38l-.04-.12Z"/>
      <path id="Pfad_374" data-name="Pfad 374" class="cls-9" d="M688.5,67.53l-2.76,33.67-35.97-2.97-8.41,101.74-42.46-3.52,8.41-101.74-35.58-2.93,2.75-33.63,113.97,9.39h.04Z"/>
      <path id="Pfad_375" data-name="Pfad 375" class="cls-9" d="M748.33,73.35l-13.55,135.16-42.38-4.25,13.55-135.16,42.38,4.25Z"/>
      <path id="Pfad_376" data-name="Pfad 376" class="cls-9" d="M302.07,260.36c6.32-9.62,15.31-17.19,25.86-21.78,10.66-4.67,22.8-6.29,36.43-4.76,11.68,1.27,21.9,4.61,30.66,10.02,8.5,5.17,15.55,12.42,20.47,21.06,5,9,7.89,19.02,8.45,29.3l-44.63-4.93c-1.38-4.42-3.99-8.35-7.52-11.34-3.56-2.91-7.91-4.7-12.49-5.14-7.13-.81-13.04,1.27-17.75,6.16s-7.56,11.85-8.58,20.85c-.98,9.04.3,16.43,3.82,22.25,3.52,5.77,8.88,9.09,16.01,9.85,4.56.58,9.19-.22,13.3-2.29,4.1-2.14,7.5-5.41,9.81-9.43l44.63,4.93c-2.79,9.91-7.78,19.05-14.61,26.75-6.68,7.38-15.12,12.93-24.54,16.14-9.72,3.35-20.38,4.42-32.1,3.14-13.59-1.49-25.1-5.68-34.53-12.57-9.32-6.76-16.45-16.11-20.51-26.88-4.25-11.04-5.63-23.23-4.16-36.56,1.49-13.33,5.49-24.93,12.02-34.78h-.05Z"/>
      <path id="Pfad_377" data-name="Pfad 377" class="cls-9" d="M497.66,386.18l-20.43-51.08h-.17l-4.97,48.45-42.38-4.33,13.88-135.12,62.97,6.46c10.96,1.1,20.08,4.03,27.47,8.71,7.35,4.67,12.65,10.57,15.84,17.62,3.23,7.29,4.43,15.31,3.48,23.23-.75,8.63-4.26,16.79-10.02,23.27-5.73,6.5-13.5,10.79-23.23,12.87l24.08,54.74-46.58-4.8h.04ZM479.96,306.82l16.82,1.74c4.08.43,7.22-.17,9.43-1.83,2.21-1.61,3.52-4.42,3.95-8.37.38-3.57-.38-6.46-2.29-8.71-1.87-2.25-4.8-3.57-8.75-3.99l-16.82-1.74-2.34,22.89Z"/>
      <path id="Pfad_378" data-name="Pfad 378" class="cls-9" d="M607.35,293.65l-1.23,16.65,42.08,3.14-2.38,31.93-42.08-3.14-1.44,19.15,47.82,3.57-2.51,33.89-90.32-6.71,10.11-135.46,90.32,6.71-2.5,33.84-47.82-3.57h-.04Z"/>
      <path id="Pfad_379" data-name="Pfad 379" class="cls-9" d="M764.55,275.01c10.25,5.63,18.66,14.11,24.2,24.42,5.56,10.32,8.24,22.04,7.98,35.07-.26,12.91-3.31,24.5-9.26,34.74-5.92,10.22-14.62,18.54-25.1,23.99-10.79,5.73-23.29,8.48-37.5,8.24l-56.6-1.02,2.51-135.8,56.6,1.02c14.18.25,26.57,3.37,37.16,9.34h.01ZM744.76,356.03c5.73-5.14,8.68-12.57,8.83-22.29.17-9.72-2.51-17.25-8.03-22.59-5.52-5.35-13.08-8.11-22.68-8.28l-10.15-.17-1.1,60.64,10.15.17c9.6.17,17.26-2.31,22.97-7.43v-.04Z"/>
      <path id="Pfad_380" data-name="Pfad 380" class="cls-9" d="M852.37,263.5l6.5,135.67-42.55,2.04-6.5-135.67,42.55-2.04Z"/>
      <path id="Pfad_381" data-name="Pfad 381" class="cls-9" d="M973.73,250.64l3.99,33.55-35.8,4.29,12.1,101.36-42.29,5.05-12.1-101.36-35.42,4.25-3.99-33.55,113.55-13.59h-.04Z"/>
      <path id="Pfad_382" data-name="Pfad 382" class="cls-9" d="M1020.27,369.03c-11.97-5.05-20.04-14.65-24.2-28.79l44.12-10.11c2.38,7.47,6.58,10.49,12.7,9.09,2.03-.4,3.9-1.41,5.35-2.89,1.33-1.49,1.78-3.57,1.19-5.48-.72-3.1-2.97-5.27-6.79-6.41-5.65-1.49-11.42-2.51-17.24-3.06-7.76-.82-15.47-2.14-23.06-3.95-6.38-1.69-12.27-4.87-17.2-9.26-5.27-4.59-8.79-11.17-10.66-19.79-1.95-8.62-1.44-16.43,1.61-23.48,3.21-7.26,8.41-13.47,14.99-17.92,7.51-5.11,15.95-8.72,24.84-10.62,16.22-3.69,29.95-2.9,41.19,2.38,11.25,5.31,18.68,14.69,22.29,28.15l-44.71,10.23c-.98-3.69-2.55-6.16-4.63-7.39-2.09-1.21-4.58-1.56-6.92-.98-1.64.31-3.06,1.32-3.91,2.76-.87,1.65-1.06,3.56-.55,5.35.68,2.97,2.89,5.1,6.67,6.24,3.74,1.19,9.55,2.29,17.41,3.4,7.66.93,15.24,2.35,22.72,4.25,6.18,1.68,11.93,4.66,16.86,8.75,5.18,4.2,8.62,10.15,10.4,17.88,4.03,15.78-1.85,32.43-14.9,42.17-6.75,5.35-15.42,9.26-25.86,11.63-15.84,3.61-29.73,2.93-41.74-2.17h.04Z"/>
      <path id="Pfad_383" data-name="Pfad 383" class="cls-7" d="M1050.21,206.3h-63.27c0-41.93-33.99-75.93-75.93-75.93s-75.93,33.99-75.93,75.93h-63.27c0-76.73,62.42-139.2,139.2-139.2s139.19,62.42,139.19,139.2Z"/>
      <path id="Pfad_384" data-name="Pfad 384" class="cls-8" d="M939.97,196.28c-76.39,0-138.6-61.87-139.15-138.14,0-.57.45-1.03,1.02-1.06h61.19c.56,0,1.01.46,1.02,1.02.61,41.51,34.41,74.86,75.93,74.91,58.05,0,75.33-50.87,75.93-92.23,0-.58.46-1.06,1.04-1.06,0,0,.01,0,.02,0h61.06c.6.01,1.09.5,1.1,1.1-.6,76.22-43.14,152.83-139.15,155.46h0Z"/>
      <path id="Pfad_385" data-name="Pfad 385" class="cls-5" d="M835.08,206.3h-63.27c0-76.73,62.42-139.2,139.2-139.2v63.27c-41.92.04-75.89,34.01-75.93,75.93Z"/>
    </g>
    <g id="Ebene_2" data-name="Ebene 2">
      <g class="cls-1">
        <g id="Gruppe_829" data-name="Gruppe 829">
          <path id="Pfad_386" data-name="Pfad 386" class="cls-4" d="M950.63,87.4h-22.55l-11.25,19.49,11.25,19.53h22.55l11.25-19.53-11.25-19.49Z"/>
          <path id="Pfad_387" data-name="Pfad 387" class="cls-4" d="M908.17,112.88h-22.55l-11.25,19.49,11.25,19.53h22.55l11.25-19.53-11.25-19.49Z"/>
          <path id="Pfad_388" data-name="Pfad 388" class="cls-4" d="M823.24,66.17h-22.55l-11.25,19.49,11.25,19.53h22.55l11.25-19.53-11.25-19.49Z"/>
          <path id="Pfad_389" data-name="Pfad 389" class="cls-4" d="M993.09,112.88h-22.55l-11.25,19.49,11.25,19.53h22.55l11.25-19.53-11.25-19.49Z"/>
          <path id="Pfad_390" data-name="Pfad 390" class="cls-4" d="M908.17,61.92h-22.55l-11.25,19.49,11.25,19.53h22.55l11.25-19.53-11.25-19.49Z"/>
          <path id="Pfad_391" data-name="Pfad 391" class="cls-4" d="M865.7,87.4h-22.55l-11.25,19.49,11.25,19.53h22.55l11.25-19.53-11.25-19.49Z"/>
          <path id="Pfad_392" data-name="Pfad 392" class="cls-4" d="M865.7,40.69h-22.55l-11.25,19.49,11.25,19.53h22.55l11.25-19.53-11.25-19.49Z"/>
          <path id="Pfad_393" data-name="Pfad 393" class="cls-4" d="M993.09,61.92h-22.55l-11.25,19.49,11.25,19.53h22.55l11.25-19.53-11.25-19.49Z"/>
          <path id="Pfad_394" data-name="Pfad 394" class="cls-4" d="M950.63,36.7h-22.55l-11.25,19.53,11.25,19.49h22.55l11.25-19.49-11.25-19.53Z"/>
        </g>
      </g>
      <path id="Pfad_396" data-name="Pfad 396" class="cls-6" d="M939.97,133.05c58.05,0,75.33-50.87,75.93-92.23,0-.58.46-1.06,1.04-1.06,0,0,.01,0,.02,0h61.06c.6.01,1.09.5,1.1,1.1-.59,76.23-43.14,152.83-139.15,155.47"/>
    </g>
  </g>
  <g id="Logoentwurf_plasitcredits_02-2" data-name="Logoentwurf plasitcredits 02-2" class="cls-11">
    <g id="Ebene_1-2" data-name="Ebene 1-2">
      <path id="Pfad_370-2" data-name="Pfad 370-2" class="cls-9" d="M181.81,126.77c-3.43,7.47-8.97,13.79-15.92,18.18-7.3,4.8-16.48,7.73-27.39,8.75l-16.82,1.57,4.08,42.97-42.42,3.99-12.78-135.25,59.2-5.6c16.56-1.57,29.65,1.43,39.28,9,9.64,7.56,15.13,18.42,16.48,32.57.88,8.12-.41,16.32-3.74,23.78l.04.04ZM142.58,107.07c-.76-8.28-5.55-12-14.35-11.17l-12.02,1.14,2.34,24.84,12.02-1.15c8.79-.85,12.8-5.41,12.02-13.67h0Z"/>
      <path id="Pfad_371-2" data-name="Pfad 371-2" class="cls-9" d="M246.91,157.22l41.02-1.95,1.53,32.19-83.57,3.95-6.45-135.67,42.55-2.04,4.93,103.48v.04Z"/>
      <path id="Pfad_372-2" data-name="Pfad 372-2" class="cls-9" d="M388.44,166.39l-45.27-.09-6.75,20.51-44.71-.09,49.94-135.76,49.13.08,49.26,135.93-44.88-.09-6.67-20.55-.05.04ZM378.17,134.33l-12.22-37.84-12.36,37.79h24.54l.04.04Z"/>
      <path id="Pfad_373-2" data-name="Pfad 373-2" class="cls-9" d="M461.48,178.45c-10.15-8.11-15.32-19.53-15.5-34.27l45.22,2.21c.26,7.81,3.52,11.89,9.77,12.19,2.07.17,4.15-.3,5.95-1.36,1.69-1.07,2.7-2.96,2.63-4.97.17-3.18-1.44-5.86-4.8-8.03s-8.62-4.67-15.75-7.6c-7.26-2.86-14.31-6.23-21.1-10.06-5.67-3.35-10.48-7.99-14.01-13.55-3.82-5.82-5.45-13.14-4.88-21.95.42-8.83,3.06-16.22,7.9-22.17,5.05-6.13,11.73-10.69,19.27-13.16,8.62-2.88,17.72-4.06,26.79-3.48,16.6.81,29.61,5.29,39.02,13.46,9.38,8.15,14,19.21,13.84,33.17l-45.82-2.25c.04-3.82-.76-6.62-2.46-8.36-1.69-1.74-3.99-2.74-6.41-2.8-1.66-.12-3.29.47-4.5,1.61-1.29,1.35-2,3.15-2,5.01-.17,3.06,1.4,5.69,4.71,7.81,3.27,2.17,8.58,4.8,15.84,7.98,7.11,2.98,14.04,6.39,20.72,10.23,5.49,3.31,10.22,7.74,13.89,12.99,3.82,5.44,5.55,12.12,5.18,20.04-.4,16.3-10.59,30.75-25.82,36.6-7.98,3.31-17.34,4.71-28.07,4.2-16.22-.81-29.41-5.27-39.58-13.38l-.04-.12Z"/>
      <path id="Pfad_374-2" data-name="Pfad 374-2" class="cls-9" d="M688.5,67.53l-2.76,33.67-35.97-2.97-8.41,101.74-42.46-3.52,8.41-101.74-35.58-2.93,2.75-33.63,113.97,9.39h.04Z"/>
      <path id="Pfad_375-2" data-name="Pfad 375-2" class="cls-9" d="M748.33,73.35l-13.55,135.16-42.38-4.25,13.55-135.16,42.38,4.25Z"/>
      <path id="Pfad_376-2" data-name="Pfad 376-2" class="cls-9" d="M302.07,260.36c6.32-9.62,15.31-17.19,25.86-21.78,10.66-4.67,22.8-6.29,36.43-4.76,11.68,1.27,21.9,4.61,30.66,10.02,8.5,5.17,15.55,12.42,20.47,21.06,5,9,7.89,19.02,8.45,29.3l-44.63-4.93c-1.38-4.42-3.99-8.35-7.52-11.34-3.56-2.91-7.91-4.7-12.49-5.14-7.13-.81-13.04,1.27-17.75,6.16s-7.56,11.85-8.58,20.85c-.98,9.04.3,16.43,3.82,22.25,3.52,5.77,8.88,9.09,16.01,9.85,4.56.58,9.19-.22,13.3-2.29,4.1-2.14,7.5-5.41,9.81-9.43l44.63,4.93c-2.79,9.91-7.78,19.05-14.61,26.75-6.68,7.38-15.12,12.93-24.54,16.14-9.72,3.35-20.38,4.42-32.1,3.14-13.59-1.49-25.1-5.68-34.53-12.57-9.32-6.76-16.45-16.11-20.51-26.88-4.25-11.04-5.63-23.23-4.16-36.56,1.49-13.33,5.49-24.93,12.02-34.78h-.05Z"/>
      <path id="Pfad_377-2" data-name="Pfad 377-2" class="cls-9" d="M497.66,386.18l-20.43-51.08h-.17l-4.97,48.45-42.38-4.33,13.88-135.12,62.97,6.46c10.96,1.1,20.08,4.03,27.47,8.71,7.35,4.67,12.65,10.57,15.84,17.62,3.23,7.29,4.43,15.31,3.48,23.23-.75,8.63-4.26,16.79-10.02,23.27-5.73,6.5-13.5,10.79-23.23,12.87l24.08,54.74-46.58-4.8h.04ZM479.96,306.82l16.82,1.74c4.08.43,7.22-.17,9.43-1.83,2.21-1.61,3.52-4.42,3.95-8.37.38-3.57-.38-6.46-2.29-8.71-1.87-2.25-4.8-3.57-8.75-3.99l-16.82-1.74-2.34,22.89Z"/>
      <path id="Pfad_378-2" data-name="Pfad 378-2" class="cls-9" d="M607.35,293.65l-1.23,16.65,42.08,3.14-2.38,31.93-42.08-3.14-1.44,19.15,47.82,3.57-2.51,33.89-90.32-6.71,10.11-135.46,90.32,6.71-2.5,33.84-47.82-3.57h-.04Z"/>
      <path id="Pfad_379-2" data-name="Pfad 379-2" class="cls-9" d="M764.55,275.01c10.25,5.63,18.66,14.11,24.2,24.42,5.56,10.32,8.24,22.04,7.98,35.07-.26,12.91-3.31,24.5-9.26,34.74-5.92,10.22-14.62,18.54-25.1,23.99-10.79,5.73-23.29,8.48-37.5,8.24l-56.6-1.02,2.51-135.8,56.6,1.02c14.18.25,26.57,3.37,37.16,9.34h.01ZM744.76,356.03c5.73-5.14,8.68-12.57,8.83-22.29.17-9.72-2.51-17.25-8.03-22.59-5.52-5.35-13.08-8.11-22.68-8.28l-10.15-.17-1.1,60.64,10.15.17c9.6.17,17.26-2.31,22.97-7.43v-.04Z"/>
      <path id="Pfad_380-2" data-name="Pfad 380-2" class="cls-9" d="M852.37,263.5l6.5,135.67-42.55,2.04-6.5-135.67,42.55-2.04Z"/>
      <path id="Pfad_381-2" data-name="Pfad 381-2" class="cls-9" d="M973.73,250.64l3.99,33.55-35.8,4.29,12.1,101.36-42.29,5.05-12.1-101.36-35.42,4.25-3.99-33.55,113.55-13.59h-.04Z"/>
      <path id="Pfad_382-2" data-name="Pfad 382-2" class="cls-9" d="M1020.27,369.03c-11.97-5.05-20.04-14.65-24.2-28.79l44.12-10.11c2.38,7.47,6.58,10.49,12.7,9.09,2.03-.4,3.9-1.41,5.35-2.89,1.33-1.49,1.78-3.57,1.19-5.48-.72-3.1-2.97-5.27-6.79-6.41-5.65-1.49-11.42-2.51-17.24-3.06-7.76-.82-15.47-2.14-23.06-3.95-6.38-1.69-12.27-4.87-17.2-9.26-5.27-4.59-8.79-11.17-10.66-19.79-1.95-8.62-1.44-16.43,1.61-23.48,3.21-7.26,8.41-13.47,14.99-17.92,7.51-5.11,15.95-8.72,24.84-10.62,16.22-3.69,29.95-2.9,41.19,2.38,11.25,5.31,18.68,14.69,22.29,28.15l-44.71,10.23c-.98-3.69-2.55-6.16-4.63-7.39-2.09-1.21-4.58-1.56-6.92-.98-1.64.31-3.06,1.32-3.91,2.76-.87,1.65-1.06,3.56-.55,5.35.68,2.97,2.89,5.1,6.67,6.24,3.74,1.19,9.55,2.29,17.41,3.4,7.66.93,15.24,2.35,22.72,4.25,6.18,1.68,11.93,4.66,16.86,8.75,5.18,4.2,8.62,10.15,10.4,17.88,4.03,15.78-1.85,32.43-14.9,42.17-6.75,5.35-15.42,9.26-25.86,11.63-15.84,3.61-29.73,2.93-41.74-2.17h.04Z"/>
      <path id="Pfad_383-2" data-name="Pfad 383-2" class="cls-7" d="M1050.21,206.3h-63.27c0-41.93-33.99-75.93-75.93-75.93s-75.93,33.99-75.93,75.93h-63.27c0-76.73,62.42-139.2,139.2-139.2s139.19,62.42,139.19,139.2Z"/>
      <path id="Pfad_384-2" data-name="Pfad 384-2" class="cls-8" d="M939.97,196.28c-76.39,0-138.6-61.87-139.15-138.14,0-.57.45-1.03,1.02-1.06h61.19c.56,0,1.01.46,1.02,1.02.61,41.51,34.41,74.86,75.93,74.91,58.05,0,75.33-50.87,75.93-92.23,0-.58.46-1.06,1.04-1.06,0,0,.01,0,.02,0h61.06c.6.01,1.09.5,1.1,1.1-.6,76.22-43.14,152.83-139.15,155.46h0Z"/>
      <path id="Pfad_385-2" data-name="Pfad 385-2" class="cls-5" d="M835.08,206.3h-63.27c0-76.73,62.42-139.2,139.2-139.2v63.27c-41.92.04-75.89,34.01-75.93,75.93Z"/>
    </g>
    <g id="Ebene_2-2" data-name="Ebene 2-2">
      <g class="cls-10">
        <g id="Gruppe_829-2" data-name="Gruppe 829-2">
          <path id="Pfad_386-2" data-name="Pfad 386-2" class="cls-3" d="M950.63,87.4h-22.55l-11.25,19.49,11.25,19.53h22.55l11.25-19.53-11.25-19.49Z"/>
          <path id="Pfad_387-2" data-name="Pfad 387-2" class="cls-3" d="M908.17,112.88h-22.55l-11.25,19.49,11.25,19.53h22.55l11.25-19.53-11.25-19.49Z"/>
          <path id="Pfad_388-2" data-name="Pfad 388-2" class="cls-3" d="M823.24,66.17h-22.55l-11.25,19.49,11.25,19.53h22.55l11.25-19.53-11.25-19.49Z"/>
          <path id="Pfad_389-2" data-name="Pfad 389-2" class="cls-3" d="M993.09,112.88h-22.55l-11.25,19.49,11.25,19.53h22.55l11.25-19.53-11.25-19.49Z"/>
          <path id="Pfad_390-2" data-name="Pfad 390-2" class="cls-3" d="M908.17,61.92h-22.55l-11.25,19.49,11.25,19.53h22.55l11.25-19.53-11.25-19.49Z"/>
          <path id="Pfad_391-2" data-name="Pfad 391-2" class="cls-3" d="M865.7,87.4h-22.55l-11.25,19.49,11.25,19.53h22.55l11.25-19.53-11.25-19.49Z"/>
          <path id="Pfad_392-2" data-name="Pfad 392-2" class="cls-3" d="M865.7,40.69h-22.55l-11.25,19.49,11.25,19.53h22.55l11.25-19.53-11.25-19.49Z"/>
          <path id="Pfad_393-2" data-name="Pfad 393-2" class="cls-3" d="M993.09,61.92h-22.55l-11.25,19.49,11.25,19.53h22.55l11.25-19.53-11.25-19.49Z"/>
          <path id="Pfad_394-2" data-name="Pfad 394-2" class="cls-3" d="M950.63,36.7h-22.55l-11.25,19.53,11.25,19.49h22.55l11.25-19.49-11.25-19.53Z"/>
        </g>
      </g>
      <path id="Pfad_396-2" data-name="Pfad 396-2" class="cls-6" d="M939.97,133.05c58.05,0,75.33-50.87,75.93-92.23,0-.58.46-1.06,1.04-1.06,0,0,.01,0,.02,0h61.06c.6.01,1.09.5,1.1,1.1-.59,76.23-43.14,152.83-139.15,155.47"/>
    </g>
  </g>
</svg>