<?xml version="1.0" encoding="UTF-8"?>
<svg id="Ebene_1" data-name="Ebene 1" xmlns="http://www.w3.org/2000/svg" viewBox="0 0 75.28 77.89">
  <defs>
    <style>
      .cls-1, .cls-2 {
        fill: none;
      }

      .cls-1, .cls-3 {
        stroke-width: 0px;
      }

      .cls-4 {
        font-family: Poppins-Medium, Poppins;
        font-size: 35px;
        font-weight: 500;
      }

      .cls-4, .cls-5 {
        isolation: isolate;
      }

      .cls-4, .cls-3 {
        fill: #414d9c;
      }

      .cls-2 {
        stroke: #414d9c;
        stroke-width: 4px;
      }
    </style>
  </defs>
  <g id="Gruppe_865" data-name="Gruppe 865">
    <g id="t" class="cls-5">
      <text class="cls-4" transform="translate(30 54.31)"><tspan x="0" y="0">t</tspan></text>
    </g>
    <g id="Gruppe_864" data-name="Gruppe 864">
      <g id="Pfad_506" data-name="Pfad 506">
        <path class="cls-1" d="M20.71,21.47h31.58c3.01,0,5.44,2.44,5.44,5.44h0l3.27,30.49c0,3.01-2.44,5.44-5.44,5.44H17.44c-3.01,0-5.44-2.44-5.44-5.44h0l3.27-30.49c0-3.01,2.44-5.44,5.44-5.44,0,0,0,0,0,0Z"/>
        <path class="cls-3" d="M20.71,25.47c-.8,0-1.44.65-1.44,1.44v.21l-3.26,30.42c.07.73.69,1.3,1.44,1.3h38.11c.75,0,1.36-.57,1.44-1.3l-3.26-30.42v-.21c0-.8-.65-1.44-1.44-1.44h-31.58M20.71,21.47h31.58c3.01,0,5.44,2.44,5.44,5.44l3.27,30.49c0,3.01-2.44,5.44-5.44,5.44H17.44c-3.01,0-5.44-2.44-5.44-5.44l3.27-30.49c0-3.01,2.44-5.44,5.44-5.44Z"/>
      </g>
      <g id="Ellipse_50" data-name="Ellipse 50">
        <ellipse class="cls-1" cx="36.5" cy="16.32" rx="8.5" ry="8"/>
        <ellipse class="cls-2" cx="36.5" cy="16.32" rx="6.5" ry="6"/>
      </g>
    </g>
  </g>
</svg>