<svg xmlns="http://www.w3.org/2000/svg" xmlns:xlink="http://www.w3.org/1999/xlink" width="314" height="310" viewBox="0 0 314 310">
  <defs>
    <clipPath id="clip-Turtle_Outline">
      <rect width="314" height="310"/>
    </clipPath>
  </defs>
  <g id="Turtle_Outline" data-name="Turtle Outline" clip-path="url(#clip-Turtle_Outline)">
    <rect width="314" height="310" fill="#fff"/>
    <g id="turtle" transform="translate(36.11 0.389)">
      <path id="Pfad_476" data-name="Pfad 476" d="M241.189,193.751c-1.941-5.063-5.323-12.309-10.417-18.079-6.414-7.269-14.146-10.489-22.357-9.316-15.8,2.257-23.953,13.2-27.4,19.525a10.8,10.8,0,0,1-7.06,5.363c-3.414-3.657-22.45-14.443-33.859-17.16-13.95-4.143-32.952-6.933-56.18-3.552-25.8,3.493-45.455,18.63-56.189,31.91a3.542,3.542,0,1,0,5.46,4.513,83.471,83.471,0,0,1,31.652-23.833l4.938,19.331c-4.906,4.527-19.344,18.589-25.232,32.359L25.308,217.142A11.774,11.774,0,1,0,9.376,234.483L31.217,254.55l-22.2-4.433A7.538,7.538,0,0,0,.538,260.3l7.982,20.015a12.808,12.808,0,0,0,11.956,8.1H39.542c12.85.253,22.752-8.794,27.49-20.017H79.381a3.542,3.542,0,1,0,0-7.084H64.9A40.564,40.564,0,0,1,37.387,250.6L14.168,229.267a4.691,4.691,0,0,1,6.347-6.909l23.219,21.333.006.005.034.03A31.2,31.2,0,0,0,64.9,251.937h77.312a31.422,31.422,0,0,0,22.232-9.307c.557-.7,11.93-12.538,12.954-14.487,1.23-2.339,3.257-5,5.934-4.39a4.888,4.888,0,0,1,3.476,5.906c-.762,5.349-14.842,18.682-16.1,20a40.425,40.425,0,0,1-28.5,11.655H95.964a3.542,3.542,0,1,0,0,7.084h46.246a48.006,48.006,0,0,0,11.915-1.5l-2.453,37.017a7.191,7.191,0,0,0,10.8,6.689l24.09-14.055a19.39,19.39,0,0,0,9.581-16.688v-8.5a19.422,19.422,0,0,0-10.959-17.417l-5.87-2.817c5.536-5.2,13.287-12.481,14.483-20.336a11.675,11.675,0,0,0-1.013-7.8c4.6-.012,10.78.11,18.7.542,6.367.574,14.263-1.538,17.672-5.782a18.109,18.109,0,0,0,4.281-11.681,10.41,10.41,0,0,0,7.39-5.116,8.961,8.961,0,0,0,.357-7.209ZM39.542,281.335H20.475a5.76,5.76,0,0,1-5.376-3.644L7.117,257.676a.454.454,0,0,1,.511-.614l39.4,7.866a47.584,47.584,0,0,0,12.182,3.122C55.948,275.7,48.17,281.417,39.542,281.335Zm149.52-9.965v8.5a12.282,12.282,0,0,1-6.068,10.57l-24.086,14.053a.085.085,0,0,1-.117,0c-.055-.034-.054-.05-.051-.1L161.39,264.4a47.591,47.591,0,0,0,12.492-8.02l8.24,3.954A12.3,12.3,0,0,1,189.062,271.37ZM84.933,177.541a124.211,124.211,0,0,1,50.165,2.49l-5.179,20.907-26.6,9.33-26.619-9.336-5.183-20.294a82.863,82.863,0,0,1,13.421-3.1ZM50.176,239.857c4.319-12.825,19.512-27.653,24.377-32.169l25.219,8.845v28.32H64.9a24.125,24.125,0,0,1-14.722-5Zm92.034,5H106.856v-28.32l25.591-8.975c5.067,3.286,22.553,15.225,29.292,27.561-1.245,1.3-2.129,2.241-2.68,2.9A24.049,24.049,0,0,1,142.21,244.853Zm28.918-20.008a43.44,43.44,0,0,1-4.3,4.97c-7.9-12.68-23.975-23.923-29.885-27.788l4.941-19.947c9.783,2.593,27.142,13.449,27.971,14.978l7.48,20.893A16.482,16.482,0,0,0,171.128,224.845Zm63.372-27.06a1.854,1.854,0,0,1-1.165.961c-2.287,1.043-7.546,1.437-10.122,1.361a3.542,3.542,0,0,0,.117,7.082l.121,0,2.842-.1a10.44,10.44,0,0,1-2.407,5.936c-2.322,2.589-6.365,3.749-12.013,3.438-7.773-.423-13.909-.559-18.578-.559-4.15,0-7.141.107-9.088.213l-6.647-18.565a17.892,17.892,0,0,0,9.666-8.282c3.441-6.3,10.083-14.177,22.189-15.907,5.9-.845,11.148,1.444,16.044,6.991,4.395,4.979,7.382,11.41,9.114,15.928a1.846,1.846,0,0,1-.075,1.5Z" transform="translate(0 -67.716)" fill="#c7e503"/>
      <path id="Pfad_477" data-name="Pfad 477" d="M349.666,63.072a12.631,12.631,0,1,0-12.631-12.631A12.646,12.646,0,0,0,349.666,63.072Zm0-18.179a5.547,5.547,0,1,1-5.547,5.547A5.554,5.554,0,0,1,349.666,44.894Z" transform="translate(-177.872 0)" fill="#c7e503"/>
      <circle id="Ellipse_47" data-name="Ellipse 47" cx="3.542" cy="3.542" r="3.542" transform="translate(166.9 91.61)" fill="#c7e503"/>
      <circle id="Ellipse_48" data-name="Ellipse 48" cx="3.542" cy="3.542" r="3.542" transform="translate(181.556 69.627)" fill="#c7e503"/>
      <circle id="Ellipse_49" data-name="Ellipse 49" cx="3.542" cy="3.542" r="3.542" transform="translate(210.849 123.599)" fill="#c7e503"/>
    </g>
  </g>
</svg>
