<?xml version="1.0" encoding="UTF-8"?>
<svg id="Ebene_1" data-name="Ebene 1" xmlns="http://www.w3.org/2000/svg" viewBox="0 0 371.35 228.28">
  <defs>
    <style>
      .cls-1 {
        fill: none;
        stroke: #000;
        stroke-linecap: round;
        stroke-linejoin: round;
        stroke-width: 8px;
      }

      .cls-2 {
        fill: #dcf5f8;
      }

      .cls-2, .cls-3, .cls-4, .cls-5 {
        stroke-width: 0px;
      }

      .cls-3 {
        fill: #dcf343;
      }

      .cls-4 {
        fill: #c7e503;
      }

      .cls-5 {
        fill: #bbf1f2;
      }
    </style>
  </defs>
  <g id="turtle">
    <g id="Gruppe_851" data-name="Gruppe 851">
      <path id="Pfad_486" data-name="Pfad 486" class="cls-3" d="M253.49,50.56h0c6.78-.52,12.51-4.69,15.64-10.43,6.78-13.55,19.81-22.94,34.93-25.02,22.94-3.13,35.97,21.9,40.66,35.45,1.56,4.17-.52,8.34-4.17,9.91h-.52l-6.26,1.56s4.17,25.02-25.55,23.46c-14.08-1.04-28.15-1.04-42.23,0l-12.51-34.93Z"/>
      <path id="Pfad_487" data-name="Pfad 487" class="cls-4" d="M340.04,60.46l-6.26,1.56s4.17,25.02-25.55,23.46c-3.65,0-7.3-.52-10.43-.52,8.86-1.04,15.64-8.34,16.16-17.2.52-3.65,2.61-6.78,6.26-7.3h0c4.17-1.04,6.26-5.21,5.21-9.38v-.52c-4.17-10.43-13.03-28.67-27.63-33.89l6.26-1.56c22.94-3.13,35.97,21.9,40.66,35.45,1.56,4.17-.52,8.34-4.69,9.91q.52,0,0,0Z"/>
      <path id="Pfad_488" data-name="Pfad 488" class="cls-4" d="M253.49,50.56l12.51,34.93c2.61,7.82,1.04,16.68-5.21,22.42l-15.12,15.12c-9.38,9.38-22.42,14.6-35.45,14.6h-108.96c-12.51,0-25.02-4.69-34.41-13.55l-32.84-30.24S58.51,30.74,128.89,20.84c80.81-11.47,124.6,29.72,124.6,29.72Z"/>
      <path id="Pfad_489" data-name="Pfad 489" class="cls-4" d="M266.01,85.49l-12.51-34.93s-39.62-37.02-112.61-30.76c26.59,2.09,52.13,10.95,74.03,26.07,4.17,3.13,7.3,7.3,8.86,11.99l9.91,28.15c2.61,7.82,1.04,16.68-5.21,22.42l-15.12,15.12c-9.38,9.38-22.42,14.6-35.45,14.6h31.8c13.55,0,26.07-5.21,35.45-14.6l15.12-15.12c6.78-6.26,8.86-15.12,5.73-22.94Z"/>
      <path id="Pfad_490" data-name="Pfad 490" class="cls-4" d="M254.02,131.36l14.6,7.3c7.82,3.65,12.51,11.47,12.51,19.81v11.99c0,7.82-4.17,15.12-10.95,19.29l-33.89,19.81c-2.61,1.56-5.73.52-7.3-2.09-.52-1.04-.52-2.09-.52-3.13l4.69-67.25,20.85-5.73Z"/>
      <path id="Pfad_491" data-name="Pfad 491" class="cls-3" d="M281.65,158.47v11.99c0,7.82-4.17,15.12-10.95,19.29l-34.41,19.81c-2.61,1.56-5.73.52-7.3-2.09-.52-1.04-.52-2.09-.52-3.13l.52-7.82c1.56,1.04,3.65,1.04,5.21,0l16.16-7.3c6.78-4.17,10.95-11.47,10.95-19.29v-11.99c0-8.34-4.69-16.16-12.51-19.81l-7.3-3.65,11.99-3.65,14.6,7.3c8.34,3.65,13.55,11.47,13.55,20.33Z"/>
      <g id="Gruppe_849" data-name="Gruppe 849">
        <path id="Pfad_492" data-name="Pfad 492" class="cls-2" d="M210.26,149.08h-108.96c-15.64,0-30.76-5.73-42.23-16.68l-32.84-30.24c-4.69-4.17-5.21-11.47-.52-16.16,4.17-4.69,11.47-5.21,16.16-.52l32.84,30.24c7.3,6.78,16.68,10.43,26.59,10.43h108.96c10.43,0,20.33-4.17,27.63-11.47,2.61-3.13,15.64-16.16,17.73-19.81,3.13-5.73,7.82-10.43,14.08-8.86s10.43,7.82,8.86,14.08h0c-1.56,11.99-16.16,22.94-23.98,31.28-11.99,11.47-27.63,17.73-44.31,17.73Z"/>
      </g>
      <g id="Gruppe_850" data-name="Gruppe 850">
        <path id="Pfad_493" data-name="Pfad 493" class="cls-5" d="M269.41,86.52c-3.13-.52-6.78,0-9.38,2.61,3.13,2.61,4.69,7.3,3.65,11.47-1.56,11.99-16.16,22.94-23.98,31.28-11.47,11.47-27.63,17.73-43.79,17.73h14.08c16.16,0,32.32-6.26,43.79-17.73,7.82-8.34,22.42-19.29,23.98-31.28,2.09-6.78-2.09-13.03-8.34-14.08h0Z"/>
        <path id="Pfad_494" data-name="Pfad 494" class="cls-5" d="M34.81,92.26l25.55,23.46c7.3,6.78,16.68,10.43,26.59,10.43h14.08c-9.91,0-19.29-3.65-26.59-10.43l-32.32-30.24c-4.69-4.17-11.99-4.17-16.16.52-1.04,1.04-1.56,2.09-2.09,3.65,3.65-1.04,7.82,0,10.95,2.61Z"/>
      </g>
      <path id="Pfad_495" data-name="Pfad 495" class="cls-4" d="M101.26,149.09l-5.21,9.91c-5.73,11.47-17.73,18.25-30.76,18.25h-27.11c-5.21,0-10.43-3.13-11.99-8.34l-11.47-28.15c-1.04-3.13.52-6.26,3.13-7.3,1.04-.52,2.09-.52,3.13-.52l55.78,10.95,24.5,5.21Z"/>
      <path id="Pfad_496" data-name="Pfad 496" class="cls-3" d="M101.26,149.09l-5.21,9.91c-5.73,11.47-17.73,18.25-30.76,18.25h-19.81c13.03,0,24.5-7.3,30.76-18.25l6.26-13.55,18.77,3.65Z"/>
    </g>
    <g id="Gruppe_853" data-name="Gruppe 853">
      <path id="Pfad_498" data-name="Pfad 498" class="cls-1" d="M253.49,50.56h0c6.78-.52,12.51-4.69,15.64-10.43,6.78-13.55,19.81-22.94,34.93-25.02,22.94-3.13,35.97,21.9,40.66,35.45,1.56,4.17-.52,8.34-4.17,9.91h-.52l-6.26,1.56s4.17,25.02-25.55,23.46c-14.08-1.04-28.15-1.04-42.23,0l-12.51-34.93Z"/>
      <path id="Pfad_499" data-name="Pfad 499" class="cls-1" d="M266.53,86.01h0l-12.51-35.45s-44.31-41.19-124.6-29.72c-29.72,4.17-57.35,19.81-76.12,43.27"/>
      <g id="Gruppe_852" data-name="Gruppe 852">
        <path id="Pfad_500" data-name="Pfad 500" class="cls-1" d="M121.63,149.08h-20.33c-15.64,0-30.76-5.73-42.23-16.68l-32.84-30.24c-4.69-4.17-5.21-11.47-.52-16.16,4.17-4.69,11.47-5.21,16.16-.52l32.84,30.24c7.3,6.78,16.68,10.43,26.59,10.43h108.96c10.43,0,20.33-4.17,27.63-11.47,2.61-3.13,15.64-16.16,17.73-19.81,3.13-5.73,7.82-10.43,14.08-8.86s10.43,7.82,8.86,14.08h0c-1.56,11.99-16.16,22.94-23.98,31.28-11.47,11.47-27.63,17.73-43.79,17.73h-65.69"/>
      </g>
      <line id="Linie_53" data-name="Linie 53" class="cls-1" x1="312.41" y1="50.56" x2="312.41" y2="50.56"/>
      <path id="Pfad_501" data-name="Pfad 501" class="cls-1" d="M254.02,131.36l14.6,7.3c7.82,3.65,12.51,11.47,12.51,19.81v11.99c0,7.82-4.17,15.12-10.95,19.29l-33.89,19.81c-2.61,1.56-5.73.52-7.3-2.09-.52-1.04-.52-2.09-.52-3.13l4.17-59.43"/>
      <path id="Pfad_502" data-name="Pfad 502" class="cls-1" d="M101.26,149.09l-5.21,9.91c-5.73,11.47-17.73,18.25-30.76,18.25h-27.11c-5.21,0-10.43-3.13-11.99-8.34l-11.47-28.15c-1.04-3.13.52-6.26,3.13-7.3,1.04-.52,2.09-.52,3.13-.52l55.78,10.95"/>
      <path id="Pfad_503" data-name="Pfad 503" class="cls-1" d="M104.39,27.1l9.38,35.97,41.71,14.6,41.71-14.6,9.38-37.02"/>
      <line id="Linie_54" data-name="Linie 54" class="cls-1" x1="155.48" y1="77.67" x2="155.48" y2="126.15"/>
      <path id="Pfad_504" data-name="Pfad 504" class="cls-1" d="M113.77,62.55s-33.37,28.67-39.1,52.66"/>
      <path id="Pfad_505" data-name="Pfad 505" class="cls-1" d="M197.19,62.55s36.49,22.42,46.92,45.36"/>
      <line id="Linie_57" data-name="Linie 57" class="cls-1" x1="333.78" y1="62.55" x2="324.92" y2="62.55"/>
    </g>
  </g>
</svg>